<?xml version="1.0" encoding="utf-8"?>
<!-- Generator: Adobe Illustrator 23.0.3, SVG Export Plug-In . SVG Version: 6.00 Build 0)  -->
<svg version="1.1" id="Layer_5" xmlns="http://www.w3.org/2000/svg" xmlns:xlink="http://www.w3.org/1999/xlink" x="0px" y="0px"
	 viewBox="0 0 34.2 254.8" style="enable-background:new 0 0 34.2 254.8;" xml:space="preserve">
<style type="text/css">
	.st0{fill:#F7F7F7;}
	.st1{fill:#FFFFFF;}
</style>
<g>
	<g>
		<g>
			<path class="st0" d="M22.9,100.6h10.7v2.1l-7.6,2.5c-0.7,0.2-1.2,0.4-1.6,0.5c0.4,0.1,1,0.3,1.7,0.6l7.5,2.6v1.9H22.9v-1.4h9
				l-9-3.1v-1.3L32,102h-9.1V100.6z"/>
			<path class="st0" d="M26.8,112.5c1.4,0,2.5,0.4,3.2,1.2c0.6,0.7,0.9,1.5,0.9,2.4c0,1.1-0.4,1.9-1.1,2.6c-0.7,0.7-1.7,1-2.9,1
				c-1,0-1.8-0.2-2.4-0.5c-0.6-0.3-1-0.7-1.3-1.3c-0.3-0.6-0.5-1.2-0.5-1.9c0-1.1,0.3-2,1-2.6C24.5,112.8,25.5,112.5,26.8,112.5z
				 M26.8,113.8c-1,0-1.7,0.2-2.2,0.7s-0.7,1-0.7,1.6c0,0.7,0.2,1.2,0.7,1.6s1.3,0.7,2.3,0.7c1,0,1.7-0.2,2.2-0.7
				c0.5-0.4,0.7-1,0.7-1.6c0-0.7-0.2-1.2-0.7-1.6S27.8,113.8,26.8,113.8z"/>
			<path class="st0" d="M22.9,122.5v-1.2h10.7v1.3h-3.8c0.7,0.6,1,1.3,1,2.1c0,0.5-0.1,0.9-0.3,1.4c-0.2,0.4-0.5,0.8-0.8,1.1
				c-0.3,0.3-0.8,0.5-1.3,0.6s-1,0.2-1.6,0.2c-1.3,0-2.4-0.3-3.1-1c-0.7-0.7-1.1-1.5-1.1-2.4c0-0.9,0.4-1.6,1.1-2.2H22.9z
				 M26.8,122.5c-0.9,0-1.6,0.1-2,0.4c-0.7,0.4-1,1-1,1.7c0,0.6,0.2,1.1,0.8,1.5c0.5,0.4,1.2,0.6,2.2,0.6c1,0,1.8-0.2,2.2-0.6
				c0.5-0.4,0.7-0.9,0.7-1.5c0-0.6-0.3-1.1-0.8-1.5S27.8,122.5,26.8,122.5z"/>
			<path class="st0" d="M22.9,129.6h7.8v1.3h-7.8V129.6z M32.1,129.6h1.5v1.3h-1.5V129.6z"/>
			<path class="st0" d="M22.9,132.9h10.7v1.3H22.9V132.9z"/>
			<path class="st0" d="M25.4,141.6l-0.2,1.4c-0.8-0.2-1.4-0.6-1.9-1.2s-0.7-1.3-0.7-2.2c0-1.1,0.4-2,1.1-2.7c0.7-0.7,1.7-1,2.9-1
				c1.3,0,2.3,0.3,3,1s1.1,1.5,1.1,2.6c0,1-0.4,1.9-1.1,2.5s-1.7,1-3,1c-0.1,0-0.2,0-0.4,0l0-5.8c-0.9,0-1.5,0.3-2,0.7
				s-0.7,1-0.7,1.6c0,0.5,0.1,0.9,0.4,1.2S24.8,141.4,25.4,141.6z M27.5,137.3l0,4.3c0.7-0.1,1.1-0.2,1.5-0.5c0.5-0.4,0.8-1,0.8-1.6
				c0-0.6-0.2-1.1-0.6-1.5C28.7,137.6,28.2,137.3,27.5,137.3z"/>
			<path class="st0" d="M22.9,148.9h10.7l0,4c0,0.8-0.1,1.5-0.3,2c-0.2,0.5-0.6,0.9-1,1.2c-0.5,0.3-0.9,0.4-1.4,0.4
				c-0.5,0-0.9-0.1-1.3-0.4s-0.7-0.6-1-1.1c-0.2,0.6-0.5,1.1-1,1.5c-0.5,0.3-1,0.5-1.6,0.5c-0.5,0-1-0.1-1.4-0.3
				c-0.4-0.2-0.8-0.5-1-0.8s-0.4-0.7-0.5-1.2c-0.1-0.5-0.2-1-0.2-1.7L22.9,148.9z M24.1,150.3l0,2.7c0,0.5,0,0.8,0.1,1
				c0.1,0.3,0.2,0.6,0.3,0.8s0.3,0.4,0.6,0.5s0.6,0.2,0.9,0.2c0.4,0,0.7-0.1,1-0.3s0.5-0.5,0.6-0.9c0.1-0.4,0.2-0.9,0.2-1.6l0-2.5
				H24.1z M29.1,150.3l0,2.3c0,0.6,0,1.1,0.1,1.4c0.1,0.4,0.3,0.6,0.5,0.8c0.2,0.2,0.6,0.3,0.9,0.3c0.4,0,0.7-0.1,0.9-0.3
				c0.3-0.2,0.5-0.4,0.6-0.7c0.1-0.3,0.1-0.9,0.1-1.6l0-2.1H29.1z"/>
			<path class="st0" d="M22.9,158.8h7.8v1.3h-7.8V158.8z M32.1,158.8h1.5v1.3h-1.5V158.8z"/>
			<path class="st0" d="M22.9,162.1h10.7v1.3H22.9V162.1z"/>
			<path class="st0" d="M22.9,165.5h10.7v1.3H22.9V165.5z"/>
			<path class="st0" d="M22.9,170v-1.2h10.7v1.3h-3.8c0.7,0.6,1,1.3,1,2.1c0,0.5-0.1,0.9-0.3,1.4c-0.2,0.4-0.5,0.8-0.8,1.1
				c-0.3,0.3-0.8,0.5-1.3,0.6s-1,0.2-1.6,0.2c-1.3,0-2.4-0.3-3.1-1s-1.1-1.5-1.1-2.4c0-0.9,0.4-1.6,1.1-2.2H22.9z M26.8,170
				c-0.9,0-1.6,0.1-2,0.4c-0.7,0.4-1,1-1,1.7c0,0.6,0.2,1.1,0.8,1.5c0.5,0.4,1.2,0.6,2.2,0.6c1,0,1.8-0.2,2.2-0.6
				c0.5-0.4,0.7-0.9,0.7-1.5c0-0.6-0.3-1.1-0.8-1.5S27.8,170,26.8,170z"/>
			<path class="st0" d="M26.8,176.7c1.4,0,2.5,0.4,3.2,1.2c0.6,0.7,0.9,1.5,0.9,2.4c0,1.1-0.4,1.9-1.1,2.6c-0.7,0.7-1.7,1-2.9,1
				c-1,0-1.8-0.2-2.4-0.5c-0.6-0.3-1-0.7-1.3-1.3c-0.3-0.6-0.5-1.2-0.5-1.9c0-1.1,0.3-2,1-2.6C24.4,177,25.5,176.7,26.8,176.7z
				 M26.8,178c-1,0-1.7,0.2-2.2,0.7c-0.5,0.4-0.7,1-0.7,1.6c0,0.7,0.2,1.2,0.7,1.6s1.3,0.7,2.3,0.7c1,0,1.7-0.2,2.2-0.7
				c0.5-0.4,0.7-1,0.7-1.6c0-0.7-0.2-1.2-0.7-1.6C28.5,178.2,27.8,178,26.8,178z"/>
			<path class="st0" d="M23.8,190.6c-0.4-0.5-0.7-1-0.9-1.4c-0.2-0.5-0.3-0.9-0.3-1.5c0-0.9,0.2-1.5,0.6-2c0.4-0.5,1-0.7,1.6-0.7
				c0.4,0,0.7,0.1,1,0.3c0.3,0.2,0.6,0.4,0.8,0.7c0.2,0.3,0.3,0.6,0.4,0.9c0.1,0.3,0.1,0.6,0.2,1.2c0.1,1.1,0.3,1.8,0.5,2.4
				c0.2,0,0.3,0,0.3,0c0.5,0,0.9-0.1,1.1-0.4c0.3-0.3,0.4-0.8,0.4-1.5c0-0.6-0.1-1.1-0.3-1.4c-0.2-0.3-0.6-0.5-1.2-0.7l0.2-1.3
				c0.6,0.1,1,0.3,1.3,0.6s0.6,0.7,0.8,1.2c0.2,0.5,0.3,1.1,0.3,1.8c0,0.7-0.1,1.2-0.2,1.6c-0.2,0.4-0.4,0.7-0.6,0.9
				s-0.5,0.3-0.9,0.4c-0.2,0-0.6,0.1-1.2,0.1h-1.8c-1.2,0-2,0-2.3,0.1c-0.3,0.1-0.6,0.2-0.9,0.3v-1.4
				C23.2,190.7,23.5,190.6,23.8,190.6z M26.8,190.5c-0.2-0.5-0.4-1.2-0.5-2.2c-0.1-0.5-0.2-0.9-0.3-1.2s-0.2-0.4-0.4-0.5
				c-0.2-0.1-0.4-0.2-0.6-0.2c-0.4,0-0.6,0.1-0.9,0.4c-0.2,0.3-0.4,0.7-0.4,1.2c0,0.5,0.1,1,0.3,1.4c0.2,0.4,0.5,0.7,0.9,0.9
				c0.3,0.1,0.7,0.2,1.3,0.2H26.8z"/>
			<path class="st0" d="M22.9,193.8h7.8v1.2h-1.2c0.6,0.3,0.9,0.6,1.1,0.8c0.2,0.3,0.3,0.5,0.3,0.8c0,0.4-0.1,0.9-0.4,1.4l-1.2-0.5
				c0.2-0.3,0.3-0.6,0.3-1c0-0.3-0.1-0.5-0.3-0.8c-0.2-0.2-0.4-0.4-0.7-0.5c-0.5-0.1-1-0.2-1.5-0.2h-4.1V193.8z"/>
			<path class="st0" d="M22.9,203.9h1c-0.8-0.5-1.2-1.2-1.2-2.2c0-0.6,0.2-1.2,0.5-1.7c0.3-0.5,0.8-0.9,1.4-1.2
				c0.6-0.3,1.3-0.4,2.1-0.4c0.8,0,1.5,0.1,2.1,0.4c0.6,0.3,1.1,0.6,1.5,1.2c0.3,0.5,0.5,1.1,0.5,1.7c0,0.5-0.1,0.9-0.3,1.3
				c-0.2,0.4-0.5,0.7-0.8,0.9h3.9v1.3H22.9V203.9z M26.8,199.7c-1,0-1.7,0.2-2.2,0.6c-0.5,0.4-0.7,0.9-0.7,1.5
				c0,0.6,0.2,1.1,0.7,1.5c0.5,0.4,1.2,0.6,2.2,0.6c1.1,0,1.8-0.2,2.3-0.6s0.7-0.9,0.7-1.5c0-0.6-0.2-1.1-0.7-1.5
				C28.5,199.9,27.8,199.7,26.8,199.7z"/>
			<path class="st0" d="M25.2,206.7l0.2,1.3c-0.5,0.1-0.9,0.3-1.2,0.6c-0.3,0.3-0.4,0.8-0.4,1.4c0,0.6,0.1,1.1,0.4,1.3
				c0.2,0.3,0.5,0.4,0.9,0.4c0.3,0,0.5-0.1,0.7-0.4c0.1-0.2,0.3-0.6,0.4-1.3c0.2-1,0.5-1.6,0.6-2c0.2-0.4,0.4-0.7,0.7-0.8
				c0.3-0.2,0.7-0.3,1-0.3c0.3,0,0.7,0.1,1,0.2c0.3,0.2,0.5,0.4,0.7,0.6c0.2,0.2,0.3,0.5,0.4,0.8c0.1,0.4,0.2,0.7,0.2,1.1
				c0,0.6-0.1,1.1-0.3,1.6c-0.2,0.5-0.4,0.8-0.7,1c-0.3,0.2-0.7,0.4-1.2,0.5l-0.2-1.3c0.4-0.1,0.7-0.2,0.9-0.5
				c0.2-0.3,0.3-0.7,0.3-1.2c0-0.6-0.1-1-0.3-1.3s-0.4-0.4-0.7-0.4c-0.2,0-0.3,0.1-0.5,0.2c-0.1,0.1-0.3,0.3-0.4,0.5
				c0,0.1-0.2,0.5-0.3,1.2c-0.2,0.9-0.5,1.6-0.6,2c-0.2,0.4-0.4,0.7-0.7,0.9c-0.3,0.2-0.7,0.3-1.1,0.3c-0.4,0-0.9-0.1-1.2-0.4
				c-0.4-0.3-0.7-0.6-0.9-1.1c-0.2-0.5-0.3-1-0.3-1.6c0-1,0.2-1.8,0.6-2.3C23.8,207.1,24.4,206.8,25.2,206.7z"/>
			<path class="st0" d="M22.9,221.5h9.5v-3.5h1.3l0,8.5h-1.3l0-3.6h-9.5V221.5z"/>
			<path class="st0" d="M22.9,227.2h7.8v1.2h-1.2c0.6,0.3,0.9,0.6,1.1,0.8c0.2,0.3,0.3,0.5,0.3,0.8c0,0.4-0.1,0.9-0.4,1.4l-1.2-0.5
				c0.2-0.3,0.3-0.6,0.3-1c0-0.3-0.1-0.5-0.3-0.8c-0.2-0.2-0.4-0.4-0.7-0.5c-0.5-0.1-1-0.2-1.5-0.2h-4.1V227.2z"/>
			<path class="st0" d="M22.9,237.3H24c-0.9-0.6-1.3-1.4-1.3-2.5c0-0.5,0.1-0.9,0.3-1.3c0.2-0.4,0.4-0.7,0.7-0.9
				c0.3-0.2,0.6-0.3,1-0.4c0.3-0.1,0.7-0.1,1.2-0.1h4.8v1.3h-4.3c-0.7,0-1.2,0-1.4,0.1c-0.3,0.1-0.6,0.3-0.8,0.5
				c-0.2,0.3-0.3,0.6-0.3,1c0,0.4,0.1,0.8,0.3,1.1c0.2,0.3,0.5,0.6,0.8,0.7c0.3,0.1,0.9,0.2,1.5,0.2h4.2v1.3h-7.8V237.3z"/>
			<path class="st0" d="M25.7,245.6l-0.2,1.3c-0.9-0.1-1.6-0.5-2.1-1.1c-0.5-0.6-0.8-1.3-0.8-2.1c0-1.1,0.3-1.9,1-2.6
				c0.7-0.6,1.7-1,3-1c0.8,0,1.6,0.1,2.2,0.4c0.6,0.3,1.1,0.7,1.4,1.3c0.3,0.6,0.5,1.2,0.5,1.9c0,0.8-0.2,1.5-0.6,2.1
				c-0.4,0.5-1,0.9-1.8,1l-0.2-1.3c0.5-0.1,0.9-0.3,1.2-0.6c0.3-0.3,0.4-0.7,0.4-1.1c0-0.7-0.2-1.2-0.7-1.6
				c-0.5-0.4-1.2-0.6-2.3-0.6c-1,0-1.8,0.2-2.3,0.6s-0.7,0.9-0.7,1.6c0,0.5,0.2,1,0.5,1.3S25.1,245.5,25.7,245.6z"/>
			<path class="st0" d="M22.9,248h10.7l0,1.3h-6.1l3.2,3.1v1.7l-2.9-3l-4.9,3.3v-1.6l4-2.6l-0.9-0.9h-3.1L22.9,248z"/>
		</g>
	</g>
	<g>
		<path class="st1" d="M5.9,19.5c0,0.6-0.2,0.9-0.5,1c-0.4,0.1-1.1,0.1-2.5,0.1c0-0.2-0.2-0.5-0.3-0.7c1.1,0,2.1,0,2.3,0
			c0.3,0,0.4-0.1,0.4-0.5v-7.8c-1,0.7-2,1.4-2.9,2L2,13.1c0.9-0.5,2.1-1.3,3.3-2.1V1.5H1.7v7.6c0,3.5-0.2,8.4-1.4,11.8
			c-0.1-0.1-0.4-0.3-0.5-0.4c1.2-3.4,1.3-8,1.3-11.4V0.8h4.8V19.5z M4.5,8.2C4,7.5,3.1,6.3,2.3,5.5l0.4-0.4C3.6,6,4.5,7,5,7.8
			L4.5,8.2z M17.7,13.8h-5.5v7h-0.6v-7H6.5v-0.7h5.1V8.3H7.2V7.6h4.3V0h0.6v7.6h4.7v0.7h-4.7v4.9h5.5V13.8z M9.3,6.6
			C9,5.3,8.2,3.2,7.4,1.6l0.5-0.2C8.8,3,9.6,5,9.9,6.3L9.3,6.6z M16.5,1.4c-0.7,1.7-1.6,3.9-2.3,5.3l-0.5-0.3
			c0.8-1.4,1.7-3.7,2.2-5.3L16.5,1.4z"/>
		<path class="st1" d="M17.5,34.4v0.7H8.7v11.4H8.2V35.1H0.1v-0.7h8.1v-9h0.6v3.9h6.6V30H8.7v4.4H17.5z M10,38.3
			c2.2,1,5,2.4,6.5,3.3l-0.3,0.6c-1.5-0.9-4.3-2.4-6.5-3.4L10,38.3z"/>
		<path class="st1" d="M7.2,66.5c0,0.2,0.1,0.5,0.1,0.7c-5.8,2.7-6.3,3-6.6,3.3c-0.1-0.2-0.2-0.5-0.3-0.7c0.2-0.1,0.5-0.3,0.5-1.1
			v-9h5.8v-6H0.6v-0.7h6.6v7.3H1.5V69L7.2,66.5z M15.8,56.2c-0.6,4.1-1.4,7.3-2.8,9.9c1.2,2.4,2.8,4.2,4.7,5.3
			c-0.2,0.1-0.3,0.4-0.4,0.6c-1.9-1.1-3.4-3-4.6-5.3c-1.3,2.3-3,4-5.4,5.4c-0.1-0.2-0.3-0.5-0.4-0.6c2.4-1.3,4.1-3.1,5.4-5.4
			c-1.1-2.4-2-5.3-2.6-8.4c-0.5,1.5-1.1,2.9-1.8,4c-0.1-0.1-0.4-0.3-0.5-0.4c1.6-2.5,2.8-6.3,3.5-10.2l0.6,0.1c-0.3,1.5-0.6,3-1,4.3
			h7.1v0.7H15.8z M10.1,56.6c0.5,3.3,1.4,6.3,2.5,8.8c1.2-2.4,2-5.5,2.5-9.2h-5L10.1,56.6z"/>
		<path class="st1" d="M2.3,83.8c-0.2,2.1-0.8,3.6-2.2,4.6C0,88.2-0.2,88-0.3,87.9c1.3-0.8,1.9-2.2,2-4.1H0.2v-0.7h4.9v-1.7H1.3
			v-4.3h0.6v3.6h3.3v-4.1h0.6V88H5.1v-4.2H2.3z M16.2,91.2c-1.1,0.9-2.6,1.8-3.8,2.6c1.6,1.4,3.5,2.5,5.5,3.1
			c-0.1,0.1-0.3,0.4-0.4,0.6c-3.7-1.2-7.1-4-8.8-7.6h0c-0.9,0.9-2.3,1.7-3.6,2.5v4.1l5.4-1.4c0,0.2,0,0.4,0,0.6
			c-5.7,1.6-6.3,1.8-6.6,2.1c-0.1-0.2-0.2-0.5-0.3-0.7c0.3-0.1,0.9-0.5,0.9-1.4v-2.9c-1.4,0.7-2.8,1.3-4.1,1.7
			c-0.1-0.2-0.3-0.5-0.4-0.6c2.6-0.7,5.9-2.2,7.9-3.9H0.1v-0.7h8.8c-0.3-0.6-0.6-1.3-0.9-1.9L8.5,87c0.4,0.6,0.8,1.4,1,2.1h8v0.7
			H9.3c0.7,1.3,1.6,2.5,2.6,3.5c1.3-0.7,2.8-1.8,3.8-2.5L16.2,91.2z M11.5,80.9H6.8v-0.7h4.7v-3.6h0.6v3.6h5v0.7h-5v4.8h4.6v0.7H7.2
			v-0.7h4.3V80.9z"/>
	</g>
</g>
</svg>
