<?xml version="1.0" encoding="utf-8"?>
<!-- Generator: Adobe Illustrator 23.0.3, SVG Export Plug-In . SVG Version: 6.00 Build 0)  -->
<svg version="1.1" id="Layer_4" xmlns="http://www.w3.org/2000/svg" xmlns:xlink="http://www.w3.org/1999/xlink" x="0px" y="0px"
	 viewBox="0 0 34.2 254.8" style="enable-background:new 0 0 34.2 254.8;" xml:space="preserve">
<style type="text/css">
	.st0{fill:#F7F7F7;}
	.st1{fill:#FFFFFF;}
</style>
<g>
	<g>
		<g>
			<path class="st0" d="M23.4,99.5h10.7v2.1l-7.6,2.5c-0.7,0.2-1.2,0.4-1.6,0.5c0.4,0.1,1,0.3,1.7,0.6l7.5,2.6v1.9H23.4v-1.4h9
				l-9-3.1v-1.3l9.1-3.1h-9.1V99.5z"/>
			<path class="st0" d="M27.3,111.3c1.4,0,2.5,0.4,3.2,1.2c0.6,0.7,0.9,1.5,0.9,2.4c0,1.1-0.4,1.9-1.1,2.6s-1.7,1-2.9,1
				c-1,0-1.8-0.2-2.4-0.5s-1-0.7-1.3-1.3c-0.3-0.6-0.5-1.2-0.5-1.9c0-1.1,0.3-2,1-2.6C25,111.7,26,111.3,27.3,111.3z M27.3,112.7
				c-1,0-1.7,0.2-2.2,0.7s-0.7,1-0.7,1.6c0,0.7,0.2,1.2,0.7,1.6s1.3,0.7,2.3,0.7s1.7-0.2,2.2-0.7c0.5-0.4,0.7-1,0.7-1.6
				c0-0.7-0.2-1.2-0.7-1.6S28.3,112.7,27.3,112.7z"/>
			<path class="st0" d="M23.4,121.4v-1.2h10.7v1.3h-3.8c0.7,0.6,1,1.3,1,2.1c0,0.5-0.1,0.9-0.3,1.4c-0.2,0.4-0.5,0.8-0.8,1.1
				c-0.3,0.3-0.8,0.5-1.3,0.6s-1,0.2-1.6,0.2c-1.3,0-2.4-0.3-3.1-1s-1.1-1.5-1.1-2.4s0.4-1.6,1.1-2.2L23.4,121.4L23.4,121.4z
				 M27.3,121.4c-0.9,0-1.6,0.1-2,0.4c-0.7,0.4-1,1-1,1.7c0,0.6,0.2,1.1,0.8,1.5c0.5,0.4,1.2,0.6,2.2,0.6s1.8-0.2,2.2-0.6
				c0.5-0.4,0.7-0.9,0.7-1.5s-0.3-1.1-0.8-1.5S28.3,121.4,27.3,121.4z"/>
			<path class="st0" d="M23.4,128.5h7.8v1.3h-7.8C23.4,129.8,23.4,128.5,23.4,128.5z M32.6,128.5h1.5v1.3h-1.5V128.5z"/>
			<path class="st0" d="M23.4,131.8h10.7v1.3H23.4V131.8z"/>
			<path class="st0" d="M25.9,140.5l-0.2,1.4c-0.8-0.2-1.4-0.6-1.9-1.2s-0.7-1.3-0.7-2.2c0-1.1,0.4-2,1.1-2.7s1.7-1,2.9-1
				c1.3,0,2.3,0.3,3,1s1.1,1.5,1.1,2.6c0,1-0.4,1.9-1.1,2.5s-1.7,1-3,1c-0.1,0-0.2,0-0.4,0v-5.8c-0.9,0-1.5,0.3-2,0.7
				s-0.7,1-0.7,1.6c0,0.5,0.1,0.9,0.4,1.2S25.3,140.3,25.9,140.5z M28,136.2v4.3c0.7-0.1,1.1-0.2,1.5-0.5c0.5-0.4,0.8-1,0.8-1.6
				s-0.2-1.1-0.6-1.5S28.7,136.2,28,136.2z"/>
			<path class="st0" d="M23.4,147.8h10.7v4c0,0.8-0.1,1.5-0.3,2s-0.6,0.9-1,1.2c-0.5,0.3-0.9,0.4-1.4,0.4s-0.9-0.1-1.3-0.4
				s-0.7-0.6-1-1.1c-0.2,0.6-0.5,1.1-1,1.5c-0.5,0.3-1,0.5-1.6,0.5c-0.5,0-1-0.1-1.4-0.3s-0.8-0.5-1-0.8s-0.4-0.7-0.5-1.2
				s-0.2-1-0.2-1.7V147.8z M24.7,149.2v2.7c0,0.5,0,0.8,0.1,1c0.1,0.3,0.2,0.6,0.3,0.8s0.3,0.4,0.6,0.5s0.6,0.2,0.9,0.2
				c0.4,0,0.7-0.1,1-0.3s0.5-0.5,0.6-0.9s0.2-0.9,0.2-1.6v-2.5h-3.7V149.2z M29.6,149.2v2.3c0,0.6,0,1.1,0.1,1.4
				c0.1,0.4,0.3,0.6,0.5,0.8s0.6,0.3,0.9,0.3c0.4,0,0.7-0.1,0.9-0.3c0.3-0.2,0.5-0.4,0.6-0.7s0.1-0.9,0.1-1.6v-2.1L29.6,149.2
				L29.6,149.2z"/>
			<path class="st0" d="M23.4,157.7h7.8v1.3h-7.8C23.4,159,23.4,157.7,23.4,157.7z M32.6,157.7h1.5v1.3h-1.5V157.7z"/>
			<path class="st0" d="M23.4,161h10.7v1.3H23.4V161z"/>
			<path class="st0" d="M23.4,164.3h10.7v1.3H23.4V164.3z"/>
			<path class="st0" d="M23.4,168.9v-1.2h10.7v1.3h-3.8c0.7,0.6,1,1.3,1,2.1c0,0.5-0.1,0.9-0.3,1.4c-0.2,0.4-0.5,0.8-0.8,1.1
				s-0.8,0.5-1.3,0.6s-1,0.2-1.6,0.2c-1.3,0-2.4-0.3-3.1-1s-1.1-1.5-1.1-2.4s0.4-1.6,1.1-2.2L23.4,168.9L23.4,168.9z M27.3,168.9
				c-0.9,0-1.6,0.1-2,0.4c-0.7,0.4-1,1-1,1.7c0,0.6,0.2,1.1,0.8,1.5c0.5,0.4,1.2,0.6,2.2,0.6s1.8-0.2,2.2-0.6
				c0.5-0.4,0.7-0.9,0.7-1.5s-0.3-1.1-0.8-1.5S28.3,168.9,27.3,168.9z"/>
			<path class="st0" d="M27.3,175.6c1.4,0,2.5,0.4,3.2,1.2c0.6,0.7,0.9,1.5,0.9,2.4c0,1.1-0.4,1.9-1.1,2.6c-0.7,0.7-1.7,1-2.9,1
				c-1,0-1.8-0.2-2.4-0.5s-1-0.7-1.3-1.3s-0.5-1.2-0.5-1.9c0-1.1,0.3-2,1-2.6C25,175.9,26,175.6,27.3,175.6z M27.3,176.9
				c-1,0-1.7,0.2-2.2,0.7c-0.5,0.4-0.7,1-0.7,1.6c0,0.7,0.2,1.2,0.7,1.6s1.3,0.7,2.3,0.7s1.7-0.2,2.2-0.7c0.5-0.4,0.7-1,0.7-1.6
				c0-0.7-0.2-1.2-0.7-1.6C29,177.1,28.3,176.9,27.3,176.9z"/>
			<path class="st0" d="M24.4,189.5c-0.4-0.5-0.7-1-0.9-1.4c-0.2-0.5-0.3-0.9-0.3-1.5c0-0.9,0.2-1.5,0.6-2s1-0.7,1.6-0.7
				c0.4,0,0.7,0.1,1,0.3s0.6,0.4,0.8,0.7c0.2,0.3,0.3,0.6,0.4,0.9c0.1,0.3,0.1,0.6,0.2,1.2c0.1,1.1,0.3,1.8,0.5,2.4
				c0.2,0,0.3,0,0.3,0c0.5,0,0.9-0.1,1.1-0.4c0.3-0.3,0.4-0.8,0.4-1.5c0-0.6-0.1-1.1-0.3-1.4c-0.2-0.3-0.6-0.5-1.2-0.7l0.2-1.3
				c0.6,0.1,1,0.3,1.3,0.6s0.6,0.7,0.8,1.2c0.2,0.5,0.3,1.1,0.3,1.8s-0.1,1.2-0.2,1.6c-0.2,0.4-0.4,0.7-0.6,0.9s-0.5,0.3-0.9,0.4
				c-0.2,0-0.6,0.1-1.2,0.1h-1.8c-1.2,0-2,0-2.3,0.1s-0.6,0.2-0.9,0.3v-1.4C23.7,189.6,24,189.5,24.4,189.5z M27.3,189.4
				c-0.2-0.5-0.4-1.2-0.5-2.2c-0.1-0.5-0.2-0.9-0.3-1.2s-0.2-0.4-0.4-0.5c-0.2-0.1-0.4-0.2-0.6-0.2c-0.4,0-0.6,0.1-0.9,0.4
				c-0.2,0.3-0.4,0.7-0.4,1.2s0.1,1,0.3,1.4c0.2,0.4,0.5,0.7,0.9,0.9c0.3,0.1,0.7,0.2,1.3,0.2L27.3,189.4L27.3,189.4z"/>
			<path class="st0" d="M23.4,192.7h7.8v1.2H30c0.6,0.3,0.9,0.6,1.1,0.8c0.2,0.3,0.3,0.5,0.3,0.8c0,0.4-0.1,0.9-0.4,1.4l-1.2-0.5
				c0.2-0.3,0.3-0.6,0.3-1c0-0.3-0.1-0.5-0.3-0.8c-0.2-0.2-0.4-0.4-0.7-0.5c-0.5-0.1-1-0.2-1.5-0.2h-4.1L23.4,192.7L23.4,192.7z"/>
			<path class="st0" d="M23.4,202.8h1c-0.8-0.5-1.2-1.2-1.2-2.2c0-0.6,0.2-1.2,0.5-1.7s0.8-0.9,1.4-1.2s1.3-0.4,2.1-0.4
				c0.8,0,1.5,0.1,2.1,0.4c0.6,0.3,1.1,0.6,1.5,1.2c0.3,0.5,0.5,1.1,0.5,1.7c0,0.5-0.1,0.9-0.3,1.3c-0.2,0.4-0.5,0.7-0.8,0.9h3.9
				v1.3H23.4V202.8z M27.3,198.6c-1,0-1.7,0.2-2.2,0.6c-0.5,0.4-0.7,0.9-0.7,1.5s0.2,1.1,0.7,1.5s1.2,0.6,2.2,0.6
				c1.1,0,1.8-0.2,2.3-0.6s0.7-0.9,0.7-1.5s-0.2-1.1-0.7-1.5C29.1,198.8,28.3,198.6,27.3,198.6z"/>
			<path class="st0" d="M25.7,205.5l0.2,1.3c-0.5,0.1-0.9,0.3-1.2,0.6c-0.3,0.3-0.4,0.8-0.4,1.4c0,0.6,0.1,1.1,0.4,1.3
				c0.2,0.3,0.5,0.4,0.9,0.4c0.3,0,0.5-0.1,0.7-0.4c0.1-0.2,0.3-0.6,0.4-1.3c0.2-1,0.5-1.6,0.6-2c0.2-0.4,0.4-0.7,0.7-0.8
				c0.3-0.2,0.7-0.3,1-0.3s0.7,0.1,1,0.2c0.3,0.2,0.5,0.4,0.7,0.6c0.2,0.2,0.3,0.5,0.4,0.8c0.1,0.4,0.2,0.7,0.2,1.1
				c0,0.6-0.1,1.1-0.3,1.6c-0.2,0.5-0.4,0.8-0.7,1c-0.3,0.2-0.7,0.4-1.2,0.5l-0.2-1.3c0.4-0.1,0.7-0.2,0.9-0.5
				c0.2-0.3,0.3-0.7,0.3-1.2c0-0.6-0.1-1-0.3-1.3s-0.4-0.4-0.7-0.4c-0.2,0-0.3,0.1-0.5,0.2c-0.1,0.1-0.3,0.3-0.4,0.5
				c0,0.1-0.2,0.5-0.3,1.2c-0.2,0.9-0.5,1.6-0.6,2c-0.2,0.4-0.4,0.7-0.7,0.9c-0.3,0.2-0.7,0.3-1.1,0.3s-0.9-0.1-1.2-0.4
				c-0.4-0.3-0.7-0.6-0.9-1.1c-0.2-0.5-0.3-1-0.3-1.6c0-1,0.2-1.8,0.6-2.3C24.3,206,24.9,205.7,25.7,205.5z"/>
			<path class="st0" d="M23.4,220.4h9.5v-3.5h1.3v8.5h-1.3v-3.6h-9.5C23.4,221.8,23.4,220.4,23.4,220.4z"/>
			<path class="st0" d="M23.4,226.1h7.8v1.2H30c0.6,0.3,0.9,0.6,1.1,0.8c0.2,0.3,0.3,0.5,0.3,0.8c0,0.4-0.1,0.9-0.4,1.4l-1.2-0.5
				c0.2-0.3,0.3-0.6,0.3-1c0-0.3-0.1-0.5-0.3-0.8c-0.2-0.2-0.4-0.4-0.7-0.5c-0.5-0.1-1-0.2-1.5-0.2h-4.1L23.4,226.1L23.4,226.1z"/>
			<path class="st0" d="M23.4,236.2h1.1c-0.9-0.6-1.3-1.4-1.3-2.5c0-0.5,0.1-0.9,0.3-1.3c0.2-0.4,0.4-0.7,0.7-0.9
				c0.3-0.2,0.6-0.3,1-0.4c0.3-0.1,0.7-0.1,1.2-0.1h4.8v1.3h-4.3c-0.7,0-1.2,0-1.4,0.1c-0.3,0.1-0.6,0.3-0.8,0.5
				c-0.2,0.3-0.3,0.6-0.3,1s0.1,0.8,0.3,1.1c0.2,0.3,0.5,0.6,0.8,0.7c0.3,0.1,0.9,0.2,1.5,0.2h4.2v1.3h-7.8
				C23.4,237.2,23.4,236.2,23.4,236.2z"/>
			<path class="st0" d="M26.2,244.5l-0.2,1.3c-0.9-0.1-1.6-0.5-2.1-1.1s-0.8-1.3-0.8-2.1c0-1.1,0.3-1.9,1-2.6c0.7-0.6,1.7-1,3-1
				c0.8,0,1.6,0.1,2.2,0.4c0.6,0.3,1.1,0.7,1.4,1.3s0.5,1.2,0.5,1.9c0,0.8-0.2,1.5-0.6,2.1c-0.4,0.5-1,0.9-1.8,1l-0.2-1.3
				c0.5-0.1,0.9-0.3,1.2-0.6c0.3-0.3,0.4-0.7,0.4-1.1c0-0.7-0.2-1.2-0.7-1.6c-0.5-0.4-1.2-0.6-2.3-0.6c-1,0-1.8,0.2-2.3,0.6
				s-0.7,0.9-0.7,1.6c0,0.5,0.2,1,0.5,1.3S25.6,244.4,26.2,244.5z"/>
			<path class="st0" d="M23.4,246.9h10.7v1.3H28l3.2,3.1v1.7l-2.9-3l-4.9,3.3v-1.6l4-2.6l-0.9-0.9h-3.1L23.4,246.9z"/>
		</g>
	</g>
	<g>
		<path class="st1" d="M0.1,9.9l1.4-0.2c0.1,0.9,0.4,1.6,0.8,2c0.3,0.4,0.9,0.7,1.4,0.7c0.7,0,1.2-0.2,1.7-0.8s0.7-1.2,0.7-2
			S5.8,8.3,5.4,7.7S4.5,6.8,3.9,6.8c-0.2,0-0.5,0.1-1,0.2L3,5.6c0.1,0,0.2,0,0.2,0c0.5,0,1.1-0.2,1.7-0.5c0.4-0.3,0.7-0.9,0.7-1.6
			c0-0.5-0.2-1.1-0.5-1.5C4.6,1.5,4.2,1.3,3.6,1.3s-1,0.2-1.3,0.5C2,2.3,1.8,3,1.7,3.7L0.2,3.4c0.2-1.1,0.5-2,1.2-2.5
			C2,0.3,2.8,0,3.6,0c0.7,0,1.2,0.1,1.8,0.4s0.9,0.8,1.2,1.3C6.9,2.3,7,2.9,7,3.5c0,0.5-0.1,1.1-0.4,1.5C6.3,5.5,5.9,5.8,5.4,6.2
			c0.7,0.2,1.2,0.6,1.5,1.1c0.4,0.6,0.6,1.3,0.6,2.2c0,1.2-0.3,2.2-1.1,3s-1.6,1.2-2.7,1.2c-1,0-1.9-0.3-2.5-1.1
			C0.6,11.9,0.2,11,0.1,9.9z"/>
		<path class="st1" d="M10.2,13.4v-1.9h1.6v1.9H10.2z"/>
		<path class="st1" d="M14.5,9.9L16,9.8c0.1,0.9,0.3,1.4,0.8,1.9c0.4,0.4,0.9,0.7,1.4,0.7c0.7,0,1.2-0.3,1.6-0.9
			c0.4-0.6,0.7-1.4,0.7-2.4c0-0.9-0.2-1.6-0.7-2.2c-0.4-0.5-1-0.8-1.8-0.8c-0.4,0-0.9,0.1-1.2,0.3c-0.2,0.2-0.5,0.6-0.8,0.9L14.7,7
			l1.1-6.8h5.6v1.5h-4.5l-0.7,3.6c0.7-0.6,1.4-0.9,2.1-0.9c1,0,1.9,0.4,2.5,1.2c0.7,0.8,1,1.9,1,3.1S21.6,11,21,11.9
			c-0.8,1.1-1.8,1.7-3,1.7c-1,0-1.9-0.3-2.5-1C15,11.9,14.6,11,14.5,9.9z"/>
		<path class="st1" d="M4.7,33.7H1.5v2H1V20.8h3.7V33.7z M1.5,21.5V33H4V21.5H1.5z M11.5,34.9c0,0.2,0.1,0.5,0.1,0.7
			c-3.3,1.8-3.7,2-3.9,2.3c-0.1-0.2-0.2-0.5-0.4-0.7c0.2-0.1,0.6-0.5,0.6-1.4v-4.4H5.7v-6.8h0.6v6.1h1.6v-8.3H5.2v-0.7h2.7v-3.4h0.6
			v3.4h2.7v0.7H8.5v8.3h1.8v-6.1h0.6v6.8H8.5v5L11.5,34.9z M14,35.5c-0.8,1.3-1.9,2.7-2.9,3.6c-0.1-0.1-0.3-0.3-0.5-0.4
			c1-0.9,2.2-2.3,2.7-3.4L14,35.5z M18.1,19.9v0.7h-3c-0.2,0.8-0.4,1.8-0.6,2.5h3v11.7h-5.3V23.1h1.7c0.2-0.7,0.4-1.7,0.6-2.5h-3
			v-0.7H18.1z M16.9,23.8h-4.1v3h4.1V23.8z M16.9,27.4h-4.1v3h4.1V27.4z M16.9,31.1h-4.1v3h4.1V31.1z M16.1,35.2
			c0.8,1.1,1.6,2.5,1.9,3.5L17.5,39c-0.3-1-1.1-2.5-2-3.6L16.1,35.2z"/>
		<path class="st1" d="M6.3,48.9c-0.7,1.2-1.5,2.4-2.3,3.6v12.4H3.4V53.2c-0.9,1.2-1.9,2.3-2.9,3.1c-0.1-0.1-0.3-0.4-0.5-0.5
			c2.1-1.8,4.3-4.5,5.7-7.1L6.3,48.9z M5.5,44.1c-1.2,1.9-3.1,4-4.8,5.4c-0.1-0.1-0.3-0.4-0.4-0.5c1.7-1.4,3.6-3.4,4.6-5.2L5.5,44.1
			z M18.2,52.4h-3.3v11.2c0,0.7-0.2,1-0.7,1.1s-1.5,0.1-3.6,0.1c0-0.2-0.1-0.4-0.3-0.6c1.7,0,3,0,3.4,0c0.4,0,0.5-0.1,0.5-0.6V52.4
			H6.9v-0.7h11.3V52.4z M17.5,46H7.8v-0.7h9.8V46H17.5z"/>
		<path class="st1" d="M17.7,75.5c-0.3,10.1-0.5,13.2-1.2,14.1c-0.3,0.4-0.6,0.6-1.1,0.6s-1.5,0-2.4-0.1c0-0.2-0.1-0.5-0.2-0.7
			c1.1,0.1,2.1,0.1,2.5,0.1c0.3,0,0.5,0,0.7-0.3c0.5-0.7,0.8-4,1.1-13.6h-3.8c-0.2,6.2-1.1,11.6-4.8,14.7c-0.1-0.1-0.4-0.3-0.6-0.4
			c0.7-0.6,1.3-1.2,1.8-2c-3.3,0.5-6.8,1-9.1,1.4l-0.1-0.7c1.2-0.2,2.8-0.4,4.6-0.6v-2.7H1v-0.7h4v-1.9H1V76h4v-2H0.4v-0.7H5v-2.2
			c-1.4,0.2-2.8,0.3-4.1,0.3c0-0.2-0.1-0.4-0.2-0.6c2.9-0.2,6.7-0.6,8.6-1.2l0.4,0.6c-1.1,0.3-2.6,0.6-4.1,0.7v2.3h4.6v0.7H5.6v2
			h4.2v6.7H5.6v1.9h4.2v0.7H5.6V88c1.4-0.2,2.9-0.4,4.3-0.6v0.4c2-3,2.6-7.4,2.8-12.1H9.9V75h2.8c0.1-1.8,0.1-3.6,0.1-5.4h0.6
			c0,1.8,0,3.7-0.1,5.4h4.4V75.5z M1.6,79.1H5v-2.3H1.6V79.1z M5,82.1v-2.3H1.6v2.3H5z M5.6,76.8v2.3h3.6v-2.3H5.6z M9.2,79.8H5.6
			v2.3h3.6V79.8z"/>
		<path class="st1" d="M6,113c-0.5-0.7-1.8-2.7-2.6-3.7C3,111.7,2.2,114,0.7,116c-0.1-0.2-0.3-0.3-0.5-0.4c2.7-3.7,3-8.1,3-12.7v-8
			h0.6v8c0,1.9-0.1,3.8-0.3,5.7c0.7,0.8,2.5,3.3,2.9,3.9L6,113z M1.5,105c-0.2-1.4-0.7-4-1.1-5.9L0.9,99c0.5,2,1,4.4,1.2,5.8
			L1.5,105z M6.2,99.5c-0.3,1.7-0.7,3.7-1.1,5.1l-0.5-0.3c0.3-1.3,0.8-3.6,1-5.1L6.2,99.5z M11.3,96.2c-0.9,3.9-3,7.1-5,8.6
			c-0.1-0.2-0.3-0.4-0.4-0.5c1-0.7,2.1-2,3-3.5c-0.6-0.7-1.5-1.6-2.3-2.2L7,98.1c0.8,0.6,1.6,1.4,2.2,2.1c0.6-1.1,1-2.2,1.4-3.5H7
			V96h3.8h0.1L11.3,96.2z M15.4,110.5c-0.5,1.3-1.2,2.9-1.8,4H18v0.7H6v-0.7h6.9c0.7-1.2,1.4-3,1.8-4.3L15.4,110.5z M16.3,109.7H8.1
			v-4.9h8.2V109.7z M15.7,105.5h-7v3.5h7V105.5z M10.2,114.2c-0.2-1-0.7-2.5-1.2-3.7l0.5-0.2c0.6,1.1,1.1,2.7,1.2,3.7L10.2,114.2z
			 M9.2,102h5.5v0.7H9.2V102z M18,98.8c-0.7,0.8-1.8,1.7-2.6,2.3c0.9,1.3,1.9,2.3,2.9,3.1c-0.2,0.1-0.3,0.3-0.4,0.5
			c-2.3-1.8-4.1-4.2-5.5-9.4l0.5-0.2c0.3,1.2,0.7,2.2,1,3.1c0.7-0.7,1.7-1.7,2.2-2.4l0.4,0.4c-0.7,0.9-1.6,1.8-2.4,2.5
			c0.3,0.7,0.6,1.3,1,1.9c0.8-0.7,1.9-1.6,2.5-2.3L18,98.8z"/>
		<path class="st1" d="M2.8,123.5c-0.6,1.2-1.3,2.3-2.1,3.1c-0.1-0.1-0.4-0.3-0.5-0.4c1.3-1.4,2.5-3.5,3.2-5.7l0.6,0.2
			c-0.2,0.7-0.5,1.4-0.8,2.1H9v0.7C9,123.5,2.8,123.5,2.8,123.5z M4.9,130.1h3.6v0.7H4.9v1.3c0.7,0.7,2.8,3.1,3.3,3.7l-0.4,0.6
			c-0.5-0.7-2-2.5-2.9-3.5v8.7H4.3V132c-0.9,2.5-2.3,5.3-3.5,7c-0.1-0.1-0.3-0.3-0.5-0.5c1.4-1.7,3-4.9,3.8-7.7H0.6v-0.7h3.7v-3h0.6
			V130.1z M5,124c0.8,0.7,1.6,1.8,2,2.5L6.6,127c-0.4-0.7-1.2-1.8-2-2.6L5,124z M18.1,122.8v0.7h-6.7c-0.6,1.2-1.3,2.2-2,3
			c-0.1-0.1-0.4-0.3-0.5-0.4c1.3-1.4,2.4-3.3,2.9-5.6l0.6,0.1c-0.2,0.7-0.5,1.5-0.8,2.1h6.5V122.8z M9.2,127.9h8v13.5h-0.6v-1H9.8
			v1.1H9.2V127.9z M9.8,128.6v3.2h6.8v-3.2H9.8z M16.6,135.7v-3.3H9.8v3.3H16.6z M16.6,139.7v-3.3H9.8v3.3H16.6z M15.6,127.1
			c-0.5-0.8-1.4-2-2.1-2.8l0.4-0.3c0.8,0.8,1.7,2,2.1,2.7L15.6,127.1z"/>
		<path class="st1" d="M18,163.4H9.6v3.8H9v-3.8H0.6v-0.7H9v-2.5H2.8v-8.7H9v-2.3H1.3v-0.7H9v-2.3h0.6v2.3h7.7v0.7H9.6v2.3H16v8.7
			H9.6v2.5H18V163.4z M3.3,155.5H9v-3.3H3.3V155.5z M9,159.5v-3.4H3.3v3.4H9z M9.6,152.1v3.3h5.8v-3.3H9.6z M15.4,156.1H9.6v3.4h5.8
			C15.4,159.5,15.4,156.1,15.4,156.1z"/>
		<path class="st1" d="M7.7,187.1c0,0.2,0.1,0.5,0.1,0.7c-5.8,2.7-6.3,3-6.6,3.3c-0.1-0.2-0.2-0.5-0.3-0.7c0.2-0.1,0.5-0.3,0.5-1.1
			v-9h5.8v-6H1.1v-0.7h6.6v7.3H2v8.8L7.7,187.1z M16.3,176.8c-0.6,4.1-1.4,7.3-2.8,9.9c1.2,2.4,2.8,4.2,4.7,5.3
			c-0.2,0.1-0.3,0.4-0.4,0.6c-1.9-1.1-3.4-3-4.6-5.3c-1.3,2.3-3,4-5.4,5.4c-0.1-0.2-0.3-0.5-0.4-0.6c2.4-1.3,4.1-3.1,5.4-5.4
			c-1.1-2.4-2-5.3-2.6-8.4c-0.5,1.5-1.1,2.9-1.8,4c-0.1-0.1-0.4-0.3-0.5-0.4c1.6-2.5,2.8-6.3,3.5-10.2l0.6,0.1c-0.3,1.5-0.6,3-1,4.3
			h7v0.7L16.3,176.8L16.3,176.8z M10.6,177.2c0.5,3.3,1.4,6.3,2.5,8.8c1.2-2.4,2-5.5,2.5-9.2h-5V177.2z"/>
		<path class="st1" d="M2.9,204.4c-0.2,2.1-0.8,3.6-2.2,4.6c-0.1-0.2-0.3-0.4-0.4-0.5c1.3-0.8,1.9-2.2,2-4.1H0.7v-0.7h4.9V202H1.8
			v-4.3h0.6v3.6h3.3v-4.1h0.6v11.4H5.6v-4.2H2.9z M16.7,211.8c-1.1,0.9-2.6,1.8-3.8,2.6c1.6,1.4,3.5,2.5,5.5,3.1
			c-0.1,0.1-0.3,0.4-0.4,0.6c-3.7-1.2-7.1-4-8.8-7.6l0,0c-0.9,0.9-2.3,1.7-3.6,2.5v4.1l5.4-1.4c0,0.2,0,0.4,0,0.6
			c-5.7,1.6-6.3,1.8-6.6,2.1c-0.1-0.2-0.2-0.5-0.3-0.7c0.3-0.1,0.9-0.5,0.9-1.4v-2.9c-1.4,0.7-2.8,1.3-4.1,1.7
			c-0.1-0.2-0.3-0.5-0.4-0.6c2.6-0.7,5.9-2.2,7.9-3.9H0.6v-0.7h8.8c-0.3-0.6-0.6-1.3-0.9-1.9l0.5-0.2c0.4,0.6,0.8,1.4,1,2.1h8v0.7
			H9.8c0.7,1.3,1.6,2.5,2.6,3.5c1.3-0.7,2.8-1.8,3.8-2.5L16.7,211.8z M12,201.5H7.3v-0.7H12v-3.6h0.6v3.6h5v0.7h-5v4.8h4.6v0.7H7.7
			v-0.7H12V201.5z"/>
	</g>
</g>
</svg>
