<?xml version="1.0" encoding="utf-8"?>
<!-- Generator: Adobe Illustrator 23.0.3, SVG Export Plug-In . SVG Version: 6.00 Build 0)  -->
<svg version="1.1" id="Layer_1" xmlns="http://www.w3.org/2000/svg" xmlns:xlink="http://www.w3.org/1999/xlink" x="0px" y="0px"
	 viewBox="0 0 34.2 254.8" style="enable-background:new 0 0 34.2 254.8;" xml:space="preserve">
<style type="text/css">
	.st0{fill:#FFFFFF;}
</style>
<g>
	<g>
		<g>
			<path class="st0" d="M23,100.9h10.7v2.1l-7.6,2.5c-0.7,0.2-1.2,0.4-1.6,0.5c0.4,0.1,1,0.3,1.7,0.6l7.5,2.6v1.9H23v-1.4h9l-9-3.1
				v-1.3l9.1-3.1H23V100.9z"/>
			<path class="st0" d="M26.9,112.7c1.4,0,2.5,0.4,3.2,1.2c0.6,0.7,0.9,1.5,0.9,2.4c0,1.1-0.4,1.9-1.1,2.6c-0.7,0.7-1.7,1-2.9,1
				c-1,0-1.8-0.2-2.4-0.5c-0.6-0.3-1-0.7-1.3-1.3c-0.3-0.6-0.5-1.2-0.5-1.9c0-1.1,0.3-2,1-2.6C24.6,113.1,25.6,112.7,26.9,112.7z
				 M26.9,114.1c-1,0-1.7,0.2-2.2,0.7s-0.7,1-0.7,1.6c0,0.7,0.2,1.2,0.7,1.6s1.3,0.7,2.3,0.7c1,0,1.7-0.2,2.2-0.7
				c0.5-0.4,0.7-1,0.7-1.6c0-0.7-0.2-1.2-0.7-1.6S27.9,114.1,26.9,114.1z"/>
			<path class="st0" d="M23,122.8v-1.2h10.7v1.3h-3.8c0.7,0.6,1,1.3,1,2.1c0,0.5-0.1,0.9-0.3,1.4c-0.2,0.4-0.5,0.8-0.8,1.1
				c-0.3,0.3-0.8,0.5-1.3,0.6c-0.5,0.2-1,0.2-1.6,0.2c-1.3,0-2.4-0.3-3.1-1c-0.7-0.7-1.1-1.5-1.1-2.4c0-0.9,0.4-1.6,1.2-2.2H23z
				 M27,122.8c-0.9,0-1.6,0.1-2,0.4c-0.7,0.4-1,1-1,1.7c0,0.6,0.2,1.1,0.8,1.5c0.5,0.4,1.2,0.6,2.2,0.6c1,0,1.8-0.2,2.2-0.6
				c0.5-0.4,0.7-0.9,0.7-1.5c0-0.6-0.3-1.1-0.8-1.5C28.6,123,27.9,122.8,27,122.8z"/>
			<path class="st0" d="M23,129.9h7.8v1.3H23V129.9z M32.2,129.9h1.5v1.3h-1.5V129.9z"/>
			<path class="st0" d="M23,133.2h10.7v1.3H23V133.2z"/>
			<path class="st0" d="M25.5,141.9l-0.2,1.4c-0.8-0.2-1.4-0.6-1.9-1.2s-0.7-1.3-0.7-2.2c0-1.1,0.3-2,1.1-2.7c0.7-0.7,1.7-1,2.9-1
				c1.3,0,2.3,0.3,3,1s1.1,1.5,1.1,2.6c0,1-0.4,1.9-1.1,2.5s-1.7,1-3,1c-0.1,0-0.2,0-0.4,0l0-5.8c-0.9,0-1.5,0.3-2,0.7
				c-0.5,0.4-0.7,1-0.7,1.6c0,0.5,0.1,0.9,0.4,1.2S25,141.7,25.5,141.9z M27.7,137.6l0,4.3c0.7-0.1,1.1-0.2,1.5-0.5
				c0.5-0.4,0.8-1,0.8-1.6c0-0.6-0.2-1.1-0.6-1.5C28.9,137.9,28.3,137.6,27.7,137.6z"/>
			<path class="st0" d="M23,149.2h10.7v4c0,0.8-0.1,1.5-0.3,2c-0.2,0.5-0.6,0.9-1,1.2c-0.5,0.3-0.9,0.4-1.4,0.4
				c-0.5,0-0.9-0.1-1.3-0.4s-0.7-0.6-1-1.1c-0.2,0.6-0.5,1.1-1,1.5c-0.5,0.3-1,0.5-1.6,0.5c-0.5,0-1-0.1-1.4-0.3
				c-0.4-0.2-0.8-0.5-1-0.8s-0.4-0.7-0.5-1.2c-0.1-0.5-0.2-1-0.2-1.7L23,149.2z M24.3,150.6l0,2.7c0,0.5,0,0.8,0.1,1
				c0.1,0.3,0.2,0.6,0.3,0.8s0.3,0.4,0.6,0.5s0.6,0.2,0.9,0.2c0.4,0,0.7-0.1,1-0.3s0.5-0.5,0.6-0.9c0.1-0.4,0.2-0.9,0.2-1.6l0-2.5
				H24.3z M29.2,150.6v2.3c0,0.6,0,1.1,0.1,1.4c0.1,0.4,0.3,0.6,0.5,0.8c0.2,0.2,0.6,0.3,0.9,0.3c0.4,0,0.7-0.1,0.9-0.3
				c0.3-0.2,0.5-0.4,0.6-0.7c0.1-0.3,0.1-0.9,0.1-1.6l0-2.1H29.2z"/>
			<path class="st0" d="M23,159.1h7.8v1.3H23V159.1z M32.2,159.1h1.5v1.3h-1.5V159.1z"/>
			<path class="st0" d="M23,162.4h10.7v1.3H23V162.4z"/>
			<path class="st0" d="M23,165.7h10.7v1.3H23V165.7z"/>
			<path class="st0" d="M23,170.3v-1.2h10.7v1.3h-3.8c0.7,0.6,1,1.3,1,2.1c0,0.5-0.1,0.9-0.3,1.4c-0.2,0.4-0.5,0.8-0.8,1.1
				c-0.3,0.3-0.8,0.5-1.3,0.6s-1,0.2-1.6,0.2c-1.3,0-2.4-0.3-3.1-1s-1.1-1.5-1.1-2.4c0-0.9,0.4-1.6,1.2-2.2H23z M27,170.3
				c-0.9,0-1.6,0.1-2,0.4c-0.7,0.4-1,1-1,1.7c0,0.6,0.2,1.1,0.8,1.5c0.5,0.4,1.2,0.6,2.2,0.6c1,0,1.8-0.2,2.2-0.6
				c0.5-0.4,0.7-0.9,0.7-1.5c0-0.6-0.3-1.1-0.8-1.5C28.6,170.5,27.9,170.3,27,170.3z"/>
			<path class="st0" d="M26.9,176.9c1.4,0,2.5,0.4,3.2,1.2c0.6,0.7,0.9,1.5,0.9,2.4c0,1.1-0.4,1.9-1.1,2.6c-0.7,0.7-1.7,1-2.9,1
				c-1,0-1.8-0.2-2.4-0.5c-0.6-0.3-1-0.7-1.3-1.3c-0.3-0.6-0.5-1.2-0.5-1.9c0-1.1,0.3-2,1-2.6C24.6,177.3,25.6,176.9,26.9,176.9z
				 M26.9,178.3c-1,0-1.7,0.2-2.2,0.7c-0.5,0.4-0.7,1-0.7,1.6c0,0.7,0.2,1.2,0.7,1.6s1.3,0.7,2.3,0.7c1,0,1.7-0.2,2.2-0.7
				c0.5-0.4,0.7-1,0.7-1.6c0-0.7-0.2-1.2-0.7-1.6C28.7,178.5,27.9,178.3,26.9,178.3z"/>
			<path class="st0" d="M24,190.9c-0.4-0.5-0.7-1-0.9-1.4c-0.2-0.5-0.3-0.9-0.3-1.5c0-0.9,0.2-1.5,0.6-2c0.4-0.5,1-0.7,1.6-0.7
				c0.4,0,0.7,0.1,1,0.3c0.3,0.2,0.6,0.4,0.8,0.7c0.2,0.3,0.3,0.6,0.4,0.9c0.1,0.3,0.1,0.6,0.2,1.2c0.1,1.1,0.3,1.8,0.5,2.4
				c0.2,0,0.3,0,0.3,0c0.5,0,0.9-0.1,1.1-0.4c0.3-0.3,0.4-0.8,0.4-1.5c0-0.6-0.1-1.1-0.3-1.4c-0.2-0.3-0.6-0.5-1.2-0.7l0.2-1.3
				c0.6,0.1,1,0.3,1.3,0.6s0.6,0.7,0.8,1.2c0.2,0.5,0.3,1.1,0.3,1.8c0,0.7-0.1,1.2-0.2,1.6c-0.2,0.4-0.4,0.7-0.6,0.9
				c-0.2,0.2-0.5,0.3-0.9,0.4c-0.2,0-0.6,0.1-1.2,0.1h-1.8c-1.2,0-2,0-2.3,0.1c-0.3,0.1-0.6,0.2-0.9,0.3v-1.4
				C23.3,191,23.6,190.9,24,190.9z M26.9,190.7c-0.2-0.5-0.4-1.2-0.5-2.2c-0.1-0.5-0.2-0.9-0.3-1.2s-0.2-0.4-0.4-0.5
				c-0.2-0.1-0.4-0.2-0.6-0.2c-0.4,0-0.6,0.1-0.9,0.4c-0.2,0.3-0.4,0.7-0.4,1.2c0,0.5,0.1,1,0.3,1.4c0.2,0.4,0.5,0.7,0.9,0.9
				c0.3,0.1,0.7,0.2,1.3,0.2H26.9z"/>
			<path class="st0" d="M23,194.1h7.8v1.2h-1.2c0.6,0.3,0.9,0.6,1.1,0.8c0.2,0.3,0.3,0.5,0.3,0.8c0,0.4-0.1,0.9-0.4,1.4l-1.2-0.5
				c0.2-0.3,0.3-0.6,0.3-1c0-0.3-0.1-0.5-0.3-0.8c-0.2-0.2-0.4-0.4-0.7-0.5c-0.5-0.1-1-0.2-1.5-0.2H23V194.1z"/>
			<path class="st0" d="M23,204.2h1c-0.8-0.5-1.2-1.2-1.2-2.2c0-0.6,0.2-1.2,0.5-1.7c0.3-0.5,0.8-0.9,1.4-1.2
				c0.6-0.3,1.3-0.4,2.1-0.4c0.8,0,1.5,0.1,2.1,0.4s1.1,0.6,1.5,1.2s0.5,1.1,0.5,1.7c0,0.5-0.1,0.9-0.3,1.3
				c-0.2,0.4-0.5,0.7-0.8,0.9h3.9v1.3H23V204.2z M26.9,200c-1,0-1.7,0.2-2.2,0.6s-0.7,0.9-0.7,1.5c0,0.6,0.2,1.1,0.7,1.5
				c0.5,0.4,1.2,0.6,2.2,0.6c1.1,0,1.8-0.2,2.3-0.6s0.7-0.9,0.7-1.5c0-0.6-0.2-1.1-0.7-1.5C28.7,200.2,27.9,200,26.9,200z"/>
			<path class="st0" d="M25.3,206.9l0.2,1.3c-0.5,0.1-0.9,0.3-1.2,0.6c-0.3,0.3-0.4,0.8-0.4,1.4c0,0.6,0.1,1.1,0.4,1.3
				c0.2,0.3,0.5,0.4,0.9,0.4c0.3,0,0.5-0.1,0.7-0.4c0.1-0.2,0.3-0.6,0.4-1.3c0.2-1,0.5-1.6,0.6-2c0.2-0.4,0.4-0.7,0.7-0.8
				c0.3-0.2,0.7-0.3,1-0.3c0.3,0,0.7,0.1,1,0.2c0.3,0.2,0.5,0.4,0.7,0.6c0.2,0.2,0.3,0.5,0.4,0.8c0.1,0.4,0.2,0.7,0.2,1.1
				c0,0.6-0.1,1.1-0.3,1.6c-0.2,0.5-0.4,0.8-0.7,1c-0.3,0.2-0.7,0.4-1.2,0.5l-0.2-1.3c0.4-0.1,0.7-0.2,0.9-0.5
				c0.2-0.3,0.3-0.7,0.3-1.2c0-0.6-0.1-1-0.3-1.3c-0.2-0.3-0.4-0.4-0.7-0.4c-0.2,0-0.3,0.1-0.5,0.2c-0.1,0.1-0.3,0.3-0.4,0.5
				c0,0.1-0.2,0.5-0.3,1.2c-0.2,0.9-0.5,1.6-0.6,2c-0.2,0.4-0.4,0.7-0.7,0.9s-0.7,0.3-1.1,0.3c-0.4,0-0.9-0.1-1.2-0.4
				c-0.4-0.3-0.7-0.6-0.9-1.1c-0.2-0.5-0.3-1-0.3-1.6c0-1,0.2-1.8,0.6-2.3C23.9,207.4,24.5,207.1,25.3,206.9z"/>
			<path class="st0" d="M23,221.8h9.5v-3.5h1.3l0,8.5h-1.3v-3.6H23V221.8z"/>
			<path class="st0" d="M23,227.4h7.8v1.2h-1.2c0.6,0.3,0.9,0.6,1.1,0.8c0.2,0.3,0.3,0.5,0.3,0.8c0,0.4-0.1,0.9-0.4,1.4l-1.2-0.5
				c0.2-0.3,0.3-0.6,0.3-1c0-0.3-0.1-0.5-0.3-0.8c-0.2-0.2-0.4-0.4-0.7-0.5c-0.5-0.1-1-0.2-1.5-0.2H23V227.4z"/>
			<path class="st0" d="M23,237.6h1.1c-0.9-0.6-1.3-1.4-1.3-2.5c0-0.5,0.1-0.9,0.3-1.3c0.2-0.4,0.4-0.7,0.7-0.9
				c0.3-0.2,0.6-0.3,1-0.4c0.3-0.1,0.7-0.1,1.2-0.1h4.8v1.3h-4.3c-0.7,0-1.2,0-1.4,0.1c-0.3,0.1-0.6,0.3-0.8,0.5
				c-0.2,0.3-0.3,0.6-0.3,1c0,0.4,0.1,0.8,0.3,1.1c0.2,0.3,0.5,0.6,0.8,0.7c0.3,0.1,0.9,0.2,1.5,0.2h4.2v1.3H23V237.6z"/>
			<path class="st0" d="M25.9,245.9l-0.2,1.3c-0.9-0.1-1.6-0.5-2.1-1.1c-0.5-0.6-0.8-1.3-0.8-2.1c0-1.1,0.3-1.9,1-2.6
				c0.7-0.6,1.7-1,3-1c0.8,0,1.6,0.1,2.2,0.4c0.6,0.3,1.1,0.7,1.4,1.3c0.3,0.6,0.5,1.2,0.5,1.9c0,0.8-0.2,1.5-0.6,2.1s-1,0.9-1.8,1
				l-0.2-1.3c0.5-0.1,0.9-0.3,1.2-0.6c0.3-0.3,0.4-0.7,0.4-1.1c0-0.7-0.2-1.2-0.7-1.6c-0.5-0.4-1.2-0.6-2.3-0.6
				c-1,0-1.8,0.2-2.3,0.6s-0.7,0.9-0.7,1.6c0,0.5,0.2,1,0.5,1.3S25.2,245.8,25.9,245.9z"/>
			<path class="st0" d="M23,248.3h10.7v1.3h-6.1l3.2,3.1v1.7l-2.9-3l-4.9,3.3v-1.6l4-2.6l-0.9-0.9H23L23,248.3z"/>
		</g>
	</g>
	<g>
		<path class="st0" d="M5.1,16.9H3.4v-13C3,4.3,2.4,4.8,1.7,5.3C1,5.7,0.4,6.1-0.1,6.3v-2c1-0.5,1.8-1.2,2.5-2
			C3.2,1.6,3.7,0.9,4,0.2h1.1V16.9z"/>
		<path class="st0" d="M9.3,2.4v-2h9.2V2c-0.9,1.1-1.8,2.6-2.7,4.5c-0.9,1.9-1.6,3.8-2.1,5.8c-0.3,1.4-0.6,2.9-0.7,4.6h-1.8
			c0-1.3,0.2-2.9,0.7-4.7c0.4-1.9,1-3.6,1.8-5.4c0.8-1.7,1.6-3.2,2.5-4.4H9.3z"/>
		<path class="st0" d="M4.3,39.1H1.2v2H0.6V26.2h3.7V39.1z M1.2,26.9v11.6h2.5V26.9H1.2z M11.1,40.3c0,0.2,0.1,0.5,0.1,0.7
			c-3.3,1.8-3.7,2-3.9,2.3c-0.1-0.2-0.2-0.5-0.4-0.7c0.2-0.1,0.6-0.5,0.6-1.4v-4.4H5.3v-6.8h0.6v6.1h1.6v-8.3H4.8v-0.7h2.7v-3.4h0.6
			v3.4h2.7v0.7H8.1v8.3h1.8V30h0.6v6.8H8.1v5L11.1,40.3z M13.6,40.9c-0.8,1.3-1.9,2.7-2.9,3.6c-0.1-0.1-0.3-0.3-0.5-0.4
			c1-0.9,2.2-2.3,2.7-3.4L13.6,40.9z M17.7,25.3V26h-3c-0.2,0.8-0.4,1.8-0.6,2.5h3v11.7h-5.3V28.5h1.7c0.2-0.7,0.4-1.7,0.6-2.5h-3
			v-0.7H17.7z M16.5,29.2h-4.1v3h4.1V29.2z M16.5,32.8h-4.1v3h4.1V32.8z M16.5,36.5h-4.1v3h4.1V36.5z M15.7,40.6
			c0.8,1.1,1.6,2.5,1.9,3.5l-0.5,0.3c-0.3-1-1.1-2.5-2-3.6L15.7,40.6z"/>
		<path class="st0" d="M7.3,67.8c0.5,0,1.2,0,1.6-0.1c0,0.2,0.1,0.5,0.1,0.7c-0.2,0-0.9,0.1-1.7,0.1H2.7c-1.5,0-2.1-0.6-2.1-2.4
			V51.2H0v-0.7h8.7v0.7H1.1v14.9c0,1.3,0.4,1.7,1.5,1.7H7.3z M2,60.2h2.8v5.9H2V60.2z M2.5,65.4h1.7v-4.5H2.5V65.4z M7.8,58.3H2.7
			v-5.1h5.2V58.3z M7.3,53.8h-4v3.8h4V53.8z M8.7,66.1h-3v-5.8h3V66.1z M8.2,61H6.3v4.5h1.8V61z M9.6,68.6c0.3-1.3,0.6-3.4,0.8-4.7
			l0.5,0.3c-0.2,1.3-0.4,3.4-0.7,4.7L9.6,68.6z M10.8,60v2h6.8c0,0,0,0.3,0,0.4c-0.3,5-0.6,6.7-1.1,7.4c-0.2,0.3-0.5,0.4-0.9,0.4
			c-0.3,0-1.1,0-1.8-0.1c0-0.2-0.1-0.5-0.2-0.7c0.8,0.1,1.6,0.1,1.8,0.1c0.3,0,0.5,0,0.6-0.2c0.4-0.5,0.7-2.2,0.9-6.7h-6.8V50.9h2.2
			c0.2-0.6,0.5-1.4,0.6-1.9l0.6,0.3c-0.2,0.6-0.4,1.1-0.6,1.7h3.8v6.5h-6v1.9H18V60H10.8z M10.8,51.6v2.3h5.4v-2.3H10.8z M16.2,56.7
			v-2.2h-5.4v2.2H16.2z M12.3,64.2c0.3,1.2,0.5,2.8,0.5,3.9l-0.6,0.1c0-1-0.2-2.6-0.5-3.9L12.3,64.2z M13.8,63.9
			c0.5,1,0.9,2.4,1.1,3.3l-0.6,0.2c-0.2-0.9-0.6-2.3-1.1-3.4L13.8,63.9z M16,66.3c-0.3-0.7-0.8-1.9-1.3-2.7l0.5-0.3
			c0.5,0.8,1.1,1.9,1.3,2.7L16,66.3z"/>
		<path class="st0" d="M17.8,91.7v0.7H0.1v-0.7h5.3v-1.8H0.9v-0.7h4.4v-1.6H2.5v-5.5h12.9v5.5h-2.9v1.6h4.5v0.7h-4.5v1.8H17.8z
			 M6.7,93c-1.7,1.1-4.1,2.2-6.1,2.8c-0.1-0.1-0.4-0.4-0.5-0.5c2.1-0.6,4.5-1.6,6-2.6L6.7,93z M6.2,79.2c-2,0.8-4.1,1.6-5.7,2.1
			l-0.3-0.6c1.5-0.5,3.7-1.3,5.8-2.1L6.2,79.2z M7.2,76.1H0.4v-0.7h7.4v5.1c0,0.5-0.1,0.7-0.4,0.8C7,81.6,6.3,81.6,5,81.6
			c0-0.2-0.1-0.4-0.2-0.6c1.1,0,1.9,0,2.2,0s0.3-0.1,0.3-0.3V76.1z M5,78.5c-0.8-0.4-2.4-1-3.6-1.3l0.3-0.5c1.2,0.3,2.7,0.8,3.6,1.2
			L5,78.5z M3.1,84.5h5.5v-1.7H3.1V84.5z M3.1,86.9h5.5v-1.8H3.1V86.9z M5.9,89.2h6v-1.6h-6V89.2z M5.9,91.7h6v-1.8h-6V91.7z
			 M15,79.2c-2.1,0.8-4.2,1.6-5.8,2.2L9,80.7c1.5-0.5,3.8-1.3,6-2.2L15,79.2z M15.9,76.1H9v-0.7h7.4v5.1c0,0.5-0.1,0.7-0.4,0.8
			c-0.4,0.1-1.1,0.1-2.4,0.1c0-0.2-0.1-0.4-0.2-0.6c1.1,0,1.9,0,2.2,0s0.3-0.1,0.3-0.3V76.1z M14.8,82.8H9.2v1.7h5.7V82.8z
			 M14.8,85.2H9.2v1.8h5.7V85.2z M13.8,78.5c-0.8-0.4-2.4-1-3.6-1.3l0.3-0.5c1.2,0.3,2.7,0.8,3.6,1.2L13.8,78.5z M11.6,92.8
			c2.2,0.6,4.6,1.6,6,2.5L17,95.8c-1.3-0.9-3.6-1.8-5.9-2.5L11.6,92.8z"/>
		<path class="st0" d="M5.9,105.5c-0.7,1.2-1.5,2.4-2.3,3.6v12.4H3.1v-11.7c-0.9,1.2-1.9,2.3-2.9,3.1c-0.1-0.1-0.3-0.4-0.5-0.5
			c2.1-1.8,4.3-4.5,5.7-7.1L5.9,105.5z M5.1,100.6c-1.2,1.9-3.1,4-4.8,5.4c-0.1-0.1-0.3-0.4-0.4-0.5c1.7-1.4,3.6-3.4,4.6-5.2
			L5.1,100.6z M17.8,108.9h-3.3v11.2c0,0.7-0.2,1-0.7,1.1c-0.5,0.1-1.5,0.1-3.6,0.1c0-0.2-0.1-0.4-0.3-0.6c1.7,0,3,0,3.4,0
			c0.4,0,0.5-0.1,0.5-0.6v-11.2H6.5v-0.7h11.3V108.9z M17.2,102.5H7.4v-0.7h9.8V102.5z"/>
		<path class="st0" d="M17.4,132.1c-0.3,10.1-0.5,13.2-1.2,14.1c-0.3,0.4-0.6,0.6-1.1,0.6c-0.5,0-1.5,0-2.4-0.1
			c0-0.2-0.1-0.5-0.2-0.7c1.1,0.1,2.1,0.1,2.5,0.1c0.3,0,0.5,0,0.7-0.3c0.5-0.7,0.8-4,1.1-13.6h-3.8c-0.2,6.2-1.1,11.6-4.8,14.7
			c-0.1-0.1-0.4-0.3-0.6-0.4c0.7-0.6,1.3-1.2,1.8-2c-3.3,0.5-6.8,1-9.1,1.4l-0.1-0.7c1.2-0.2,2.8-0.4,4.6-0.6V142h-4v-0.7h4v-1.9h-4
			v-6.7h4v-2H0v-0.7h4.6v-2.2c-1.4,0.2-2.8,0.3-4.1,0.3c0-0.2-0.1-0.4-0.2-0.6c2.9-0.2,6.7-0.6,8.6-1.2l0.4,0.6
			c-1.1,0.3-2.6,0.6-4.1,0.7v2.3h4.6v0.7H5.2v2h4.2v6.7H5.2v1.9h4.2v0.7H5.2v2.6c1.4-0.2,2.9-0.4,4.3-0.6l0,0.4
			c2-3,2.6-7.4,2.8-12.1H9.6v-0.7h2.8c0.1-1.8,0.1-3.6,0.1-5.4H13c0,1.8,0,3.7-0.1,5.4h4.4V132.1z M1.2,135.6h3.4v-2.3H1.2V135.6z
			 M4.6,138.7v-2.3H1.2v2.3H4.6z M5.2,133.3v2.3h3.6v-2.3H5.2z M8.8,136.3H5.2v2.3h3.6V136.3z"/>
		<path class="st0" d="M5.6,169.6c-0.5-0.7-1.8-2.7-2.6-3.7c-0.4,2.4-1.2,4.7-2.6,6.7c-0.1-0.2-0.3-0.3-0.5-0.4
			c2.7-3.7,3-8.1,3-12.7v-8h0.6v8c0,1.9-0.1,3.8-0.3,5.7c0.7,0.8,2.5,3.3,2.9,3.9L5.6,169.6z M1.1,161.6c-0.2-1.4-0.7-4-1.1-5.9
			l0.5-0.1c0.5,2,1,4.4,1.2,5.8L1.1,161.6z M5.8,156c-0.3,1.7-0.7,3.7-1.1,5.1l-0.5-0.3c0.3-1.3,0.8-3.6,1-5.1L5.8,156z M10.9,152.7
			c-0.9,3.9-3,7.1-5,8.6c-0.1-0.2-0.3-0.4-0.4-0.5c1-0.7,2.1-2,3-3.5c-0.6-0.7-1.5-1.6-2.3-2.2l0.4-0.4c0.8,0.6,1.6,1.4,2.2,2.1
			c0.6-1.1,1-2.2,1.4-3.5H6.6v-0.7h3.8l0.1,0L10.9,152.7z M15,167c-0.5,1.3-1.2,2.9-1.8,4h4.4v0.7h-12v-0.7h6.9
			c0.7-1.2,1.4-3,1.8-4.3L15,167z M15.9,166.2H7.7v-4.9h8.2V166.2z M15.3,162h-7v3.5h7V162z M9.8,170.7c-0.2-1-0.7-2.5-1.2-3.7
			l0.5-0.2c0.6,1.1,1.1,2.7,1.2,3.7L9.8,170.7z M8.8,158.5h5.5v0.7H8.8V158.5z M17.6,155.3c-0.7,0.8-1.8,1.7-2.6,2.3
			c0.9,1.3,1.9,2.3,2.9,3.1c-0.2,0.1-0.3,0.3-0.4,0.5c-2.3-1.8-4.1-4.2-5.5-9.4l0.5-0.2c0.3,1.2,0.7,2.2,1,3.1
			c0.7-0.7,1.7-1.7,2.2-2.4l0.4,0.4c-0.7,0.9-1.6,1.8-2.4,2.5c0.3,0.7,0.6,1.3,1,1.9c0.8-0.7,1.9-1.6,2.5-2.3L17.6,155.3z"/>
		<path class="st0" d="M2.4,180c-0.6,1.2-1.3,2.3-2.1,3.1c-0.1-0.1-0.4-0.3-0.5-0.4c1.3-1.4,2.5-3.5,3.2-5.7l0.6,0.2
			c-0.2,0.7-0.5,1.4-0.8,2.1h5.8v0.7H2.4z M4.5,186.6h3.6v0.7H4.5v1.3c0.7,0.7,2.8,3.1,3.3,3.7l-0.4,0.6c-0.5-0.7-2-2.5-2.9-3.5v8.7
			H4v-9.5c-0.9,2.5-2.3,5.3-3.5,7c-0.1-0.1-0.3-0.3-0.5-0.5c1.4-1.7,3-4.9,3.8-7.7H0.3v-0.7H4v-3h0.6V186.6z M4.6,180.5
			c0.8,0.7,1.6,1.8,2,2.5l-0.4,0.5c-0.4-0.7-1.2-1.8-2-2.6L4.6,180.5z M17.7,179.4v0.7H11c-0.6,1.2-1.3,2.2-2,3
			c-0.1-0.1-0.4-0.3-0.5-0.4c1.3-1.4,2.4-3.3,2.9-5.6l0.6,0.1c-0.2,0.7-0.5,1.5-0.8,2.1H17.7z M8.9,184.5h8v13.5h-0.6v-1H9.4v1.1
			H8.9V184.5z M9.4,185.1v3.2h6.8v-3.2H9.4z M16.3,192.3V189H9.4v3.3H16.3z M16.3,196.3v-3.3H9.4v3.3H16.3z M15.3,183.7
			c-0.5-0.8-1.4-2-2.1-2.8l0.4-0.3c0.8,0.8,1.7,2,2.1,2.7L15.3,183.7z"/>
		<path class="st0" d="M17.7,220H9.2v3.8H8.6V220H0.2v-0.7h8.4v-2.5H2.4V208h6.2v-2.3H0.9V205h7.6v-2.3h0.6v2.3h7.7v0.7H9.2v2.3h6.4
			v8.7H9.2v2.5h8.5V220z M3,212h5.6v-3.3H3V212z M8.6,216v-3.4H3v3.4H8.6z M9.2,208.7v3.3H15v-3.3H9.2z M15,212.7H9.2v3.4H15V212.7z
			"/>
	</g>
</g>
</svg>
