<?xml version="1.0" encoding="utf-8"?>
<!-- Generator: Adobe Illustrator 23.0.3, SVG Export Plug-In . SVG Version: 6.00 Build 0)  -->
<svg version="1.1" id="Layer_3" xmlns="http://www.w3.org/2000/svg" xmlns:xlink="http://www.w3.org/1999/xlink" x="0px" y="0px"
	 viewBox="0 0 34.2 254.8" style="enable-background:new 0 0 34.2 254.8;" xml:space="preserve">
<style type="text/css">
	.st0{fill:#F7F7F7;}
	.st1{fill:#FFFFFF;}
</style>
<g>
	<g>
		<g>
			<path class="st0" d="M23.1,101.1h10.7v2.1l-7.6,2.5c-0.7,0.2-1.2,0.4-1.6,0.5c0.4,0.1,1,0.3,1.7,0.6l7.5,2.6v1.9H23.1V110h9
				l-9-3.1v-1.3l9.1-3.1h-9.1V101.1z"/>
			<path class="st0" d="M27,113c1.4,0,2.5,0.4,3.2,1.2c0.6,0.7,0.9,1.5,0.9,2.4c0,1.1-0.4,1.9-1.1,2.6c-0.7,0.7-1.7,1-2.9,1
				c-1,0-1.8-0.2-2.4-0.5c-0.6-0.3-1-0.7-1.3-1.3c-0.3-0.6-0.5-1.2-0.5-1.9c0-1.1,0.3-2,1-2.6C24.7,113.4,25.7,113,27,113z
				 M27,114.4c-1,0-1.7,0.2-2.2,0.7s-0.7,1-0.7,1.6c0,0.7,0.2,1.2,0.7,1.6s1.3,0.7,2.3,0.7c1,0,1.7-0.2,2.2-0.7
				c0.5-0.4,0.7-1,0.7-1.6c0-0.7-0.2-1.2-0.7-1.6S28,114.4,27,114.4z"/>
			<path class="st0" d="M23.1,123.1v-1.2h10.7v1.3H30c0.7,0.6,1,1.3,1,2.1c0,0.5-0.1,0.9-0.3,1.4c-0.2,0.4-0.5,0.8-0.8,1.1
				c-0.3,0.3-0.8,0.5-1.3,0.6s-1,0.2-1.6,0.2c-1.3,0-2.4-0.3-3.1-1c-0.7-0.7-1.1-1.5-1.1-2.4c0-0.9,0.4-1.6,1.1-2.2H23.1z M27.1,123
				c-0.9,0-1.6,0.1-2,0.4c-0.7,0.4-1,1-1,1.7c0,0.6,0.2,1.1,0.8,1.5c0.5,0.4,1.2,0.6,2.2,0.6c1,0,1.8-0.2,2.2-0.6
				c0.5-0.4,0.7-0.9,0.7-1.5c0-0.6-0.3-1.1-0.8-1.5S28,123,27.1,123z"/>
			<path class="st0" d="M23.1,130.2h7.8v1.3h-7.8V130.2z M32.3,130.2h1.5v1.3h-1.5V130.2z"/>
			<path class="st0" d="M23.1,133.5h10.7v1.3H23.1V133.5z"/>
			<path class="st0" d="M25.6,142.2l-0.2,1.4c-0.8-0.2-1.4-0.6-1.9-1.2s-0.7-1.3-0.7-2.2c0-1.1,0.4-2,1.1-2.7c0.7-0.7,1.7-1,2.9-1
				c1.3,0,2.3,0.3,3,1s1.1,1.5,1.1,2.6c0,1-0.4,1.9-1.1,2.5s-1.7,1-3,1c-0.1,0-0.2,0-0.4,0l0-5.8c-0.9,0-1.5,0.3-2,0.7
				s-0.7,1-0.7,1.6c0,0.5,0.1,0.9,0.4,1.2S25.1,142,25.6,142.2z M27.8,137.9l0,4.3c0.7-0.1,1.1-0.2,1.5-0.5c0.5-0.4,0.8-1,0.8-1.6
				c0-0.6-0.2-1.1-0.6-1.5C29,138.1,28.4,137.9,27.8,137.9z"/>
			<path class="st0" d="M23.1,149.5h10.7l0,4c0,0.8-0.1,1.5-0.3,2c-0.2,0.5-0.6,0.9-1,1.2c-0.5,0.3-0.9,0.4-1.4,0.4
				c-0.5,0-0.9-0.1-1.3-0.4s-0.7-0.6-1-1.1c-0.2,0.6-0.5,1.1-1,1.5c-0.5,0.3-1,0.5-1.6,0.5c-0.5,0-1-0.1-1.4-0.3
				c-0.4-0.2-0.8-0.5-1-0.8s-0.4-0.7-0.5-1.2c-0.1-0.5-0.2-1-0.2-1.7L23.1,149.5z M24.4,150.9l0,2.7c0,0.5,0,0.8,0.1,1
				c0.1,0.3,0.2,0.6,0.3,0.8s0.3,0.4,0.6,0.5s0.6,0.2,0.9,0.2c0.4,0,0.7-0.1,1-0.3s0.5-0.5,0.6-0.9c0.1-0.4,0.2-0.9,0.2-1.6l0-2.5
				H24.4z M29.3,150.9l0,2.3c0,0.6,0,1.1,0.1,1.4c0.1,0.4,0.3,0.6,0.5,0.8c0.2,0.2,0.6,0.3,0.9,0.3c0.4,0,0.7-0.1,0.9-0.3
				c0.3-0.2,0.5-0.4,0.6-0.7c0.1-0.3,0.1-0.9,0.1-1.6l0-2.1H29.3z"/>
			<path class="st0" d="M23.1,159.4h7.8v1.3h-7.8V159.4z M32.3,159.4h1.5v1.3h-1.5V159.4z"/>
			<path class="st0" d="M23.1,162.7h10.7v1.3H23.1V162.7z"/>
			<path class="st0" d="M23.1,166h10.7v1.3H23.1V166z"/>
			<path class="st0" d="M23.1,170.6v-1.2h10.7v1.3H30c0.7,0.6,1,1.3,1,2.1c0,0.5-0.1,0.9-0.3,1.4c-0.2,0.4-0.5,0.8-0.8,1.1
				c-0.3,0.3-0.8,0.5-1.3,0.6s-1,0.2-1.6,0.2c-1.3,0-2.4-0.3-3.1-1s-1.1-1.5-1.1-2.4c0-0.9,0.4-1.6,1.1-2.2H23.1z M27.1,170.6
				c-0.9,0-1.6,0.1-2,0.4c-0.7,0.4-1,1-1,1.7c0,0.6,0.2,1.1,0.8,1.5c0.5,0.4,1.2,0.6,2.2,0.6c1,0,1.8-0.2,2.2-0.6
				c0.5-0.4,0.7-0.9,0.7-1.5c0-0.6-0.3-1.1-0.8-1.5S28,170.6,27.1,170.6z"/>
			<path class="st0" d="M27,177.2c1.4,0,2.5,0.4,3.2,1.2c0.6,0.7,0.9,1.5,0.9,2.4c0,1.1-0.4,1.9-1.1,2.6c-0.7,0.7-1.7,1-2.9,1
				c-1,0-1.8-0.2-2.4-0.5c-0.6-0.3-1-0.7-1.3-1.3c-0.3-0.6-0.5-1.2-0.5-1.9c0-1.1,0.3-2,1-2.6C24.7,177.6,25.7,177.2,27,177.2z
				 M27,178.6c-1,0-1.7,0.2-2.2,0.7c-0.5,0.4-0.7,1-0.7,1.6c0,0.7,0.2,1.2,0.7,1.6s1.3,0.7,2.3,0.7c1,0,1.7-0.2,2.2-0.7
				c0.5-0.4,0.7-1,0.7-1.6c0-0.7-0.2-1.2-0.7-1.6C28.7,178.8,28,178.6,27,178.6z"/>
			<path class="st0" d="M24.1,191.1c-0.4-0.5-0.7-1-0.9-1.4c-0.2-0.5-0.3-0.9-0.3-1.5c0-0.9,0.2-1.5,0.6-2c0.4-0.5,1-0.7,1.6-0.7
				c0.4,0,0.7,0.1,1,0.3c0.3,0.2,0.6,0.4,0.8,0.7c0.2,0.3,0.3,0.6,0.4,0.9c0.1,0.3,0.1,0.6,0.2,1.2c0.1,1.1,0.3,1.8,0.5,2.4
				c0.2,0,0.3,0,0.3,0c0.5,0,0.9-0.1,1.1-0.4c0.3-0.3,0.4-0.8,0.4-1.5c0-0.6-0.1-1.1-0.3-1.4c-0.2-0.3-0.6-0.5-1.2-0.7l0.2-1.3
				c0.6,0.1,1,0.3,1.3,0.6s0.6,0.7,0.8,1.2c0.2,0.5,0.3,1.1,0.3,1.8c0,0.7-0.1,1.2-0.2,1.6c-0.2,0.4-0.4,0.7-0.6,0.9
				s-0.5,0.3-0.9,0.4c-0.2,0-0.6,0.1-1.2,0.1h-1.8c-1.2,0-2,0-2.3,0.1c-0.3,0.1-0.6,0.2-0.9,0.3v-1.4
				C23.4,191.3,23.7,191.2,24.1,191.1z M27,191c-0.2-0.5-0.4-1.2-0.5-2.2c-0.1-0.5-0.2-0.9-0.3-1.2s-0.2-0.4-0.4-0.5
				c-0.2-0.1-0.4-0.2-0.6-0.2c-0.4,0-0.6,0.1-0.9,0.4c-0.2,0.3-0.4,0.7-0.4,1.2c0,0.5,0.1,1,0.3,1.4c0.2,0.4,0.5,0.7,0.9,0.9
				c0.3,0.1,0.7,0.2,1.3,0.2H27z"/>
			<path class="st0" d="M23.1,194.4h7.8v1.2h-1.2c0.6,0.3,0.9,0.6,1.1,0.8c0.2,0.3,0.3,0.5,0.3,0.8c0,0.4-0.1,0.9-0.4,1.4l-1.2-0.5
				c0.2-0.3,0.3-0.6,0.3-1c0-0.3-0.1-0.5-0.3-0.8c-0.2-0.2-0.4-0.4-0.7-0.5c-0.5-0.1-1-0.2-1.5-0.2h-4.1V194.4z"/>
			<path class="st0" d="M23.1,204.4h1c-0.8-0.5-1.2-1.2-1.2-2.2c0-0.6,0.2-1.2,0.5-1.7c0.3-0.5,0.8-0.9,1.4-1.2
				c0.6-0.3,1.3-0.4,2.1-0.4c0.8,0,1.5,0.1,2.1,0.4c0.6,0.3,1.1,0.6,1.5,1.2c0.3,0.5,0.5,1.1,0.5,1.7c0,0.5-0.1,0.9-0.3,1.3
				c-0.2,0.4-0.5,0.7-0.8,0.9h3.9v1.3H23.1V204.4z M27,200.3c-1,0-1.7,0.2-2.2,0.6c-0.5,0.4-0.7,0.9-0.7,1.5c0,0.6,0.2,1.1,0.7,1.5
				c0.5,0.4,1.2,0.6,2.2,0.6c1.1,0,1.8-0.2,2.3-0.6s0.7-0.9,0.7-1.5c0-0.6-0.2-1.1-0.7-1.5C28.8,200.5,28,200.3,27,200.3z"/>
			<path class="st0" d="M25.4,207.2l0.2,1.3c-0.5,0.1-0.9,0.3-1.2,0.6c-0.3,0.3-0.4,0.8-0.4,1.4c0,0.6,0.1,1.1,0.4,1.3
				c0.2,0.3,0.5,0.4,0.9,0.4c0.3,0,0.5-0.1,0.7-0.4c0.1-0.2,0.3-0.6,0.4-1.3c0.2-1,0.5-1.6,0.6-2c0.2-0.4,0.4-0.7,0.7-0.8
				c0.3-0.2,0.7-0.3,1-0.3c0.3,0,0.7,0.1,1,0.2c0.3,0.2,0.5,0.4,0.7,0.6c0.2,0.2,0.3,0.5,0.4,0.8c0.1,0.4,0.2,0.7,0.2,1.1
				c0,0.6-0.1,1.1-0.3,1.6c-0.2,0.5-0.4,0.8-0.7,1c-0.3,0.2-0.7,0.4-1.2,0.5l-0.2-1.3c0.4-0.1,0.7-0.2,0.9-0.5
				c0.2-0.3,0.3-0.7,0.3-1.2c0-0.6-0.1-1-0.3-1.3s-0.4-0.4-0.7-0.4c-0.2,0-0.3,0.1-0.5,0.2c-0.1,0.1-0.3,0.3-0.4,0.5
				c0,0.1-0.2,0.5-0.3,1.2c-0.2,0.9-0.5,1.6-0.6,2c-0.2,0.4-0.4,0.7-0.7,0.9c-0.3,0.2-0.7,0.3-1.1,0.3c-0.4,0-0.9-0.1-1.2-0.4
				c-0.4-0.3-0.7-0.6-0.9-1.1c-0.2-0.5-0.3-1-0.3-1.6c0-1,0.2-1.8,0.6-2.3C24,207.7,24.6,207.4,25.4,207.2z"/>
			<path class="st0" d="M23.1,222h9.5v-3.5h1.3l0,8.5h-1.3l0-3.6h-9.5V222z"/>
			<path class="st0" d="M23.1,227.7h7.8v1.2h-1.2c0.6,0.3,0.9,0.6,1.1,0.8c0.2,0.3,0.3,0.5,0.3,0.8c0,0.4-0.1,0.9-0.4,1.4l-1.2-0.5
				c0.2-0.3,0.3-0.6,0.3-1c0-0.3-0.1-0.5-0.3-0.8c-0.2-0.2-0.4-0.4-0.7-0.5c-0.5-0.1-1-0.2-1.5-0.2h-4.1V227.7z"/>
			<path class="st0" d="M23.1,237.8h1.1c-0.9-0.6-1.3-1.4-1.3-2.5c0-0.5,0.1-0.9,0.3-1.3c0.2-0.4,0.4-0.7,0.7-0.9
				c0.3-0.2,0.6-0.3,1-0.4c0.3-0.1,0.7-0.1,1.2-0.1h4.8v1.3h-4.3c-0.7,0-1.2,0-1.4,0.1c-0.3,0.1-0.6,0.3-0.8,0.5
				c-0.2,0.3-0.3,0.6-0.3,1c0,0.4,0.1,0.8,0.3,1.1c0.2,0.3,0.5,0.6,0.8,0.7c0.3,0.1,0.9,0.2,1.5,0.2h4.2v1.3h-7.8V237.8z"/>
			<path class="st0" d="M26,246.1l-0.2,1.3c-0.9-0.1-1.6-0.5-2.1-1.1c-0.5-0.6-0.8-1.3-0.8-2.1c0-1.1,0.3-1.9,1-2.6
				c0.7-0.6,1.7-1,3-1c0.8,0,1.6,0.1,2.2,0.4c0.6,0.3,1.1,0.7,1.4,1.3c0.3,0.6,0.5,1.2,0.5,1.9c0,0.8-0.2,1.5-0.6,2.1
				c-0.4,0.5-1,0.9-1.8,1l-0.2-1.3c0.5-0.1,0.9-0.3,1.2-0.6c0.3-0.3,0.4-0.7,0.4-1.1c0-0.7-0.2-1.2-0.7-1.6
				c-0.5-0.4-1.2-0.6-2.3-0.6c-1,0-1.8,0.2-2.3,0.6s-0.7,0.9-0.7,1.6c0,0.5,0.2,1,0.5,1.3S25.3,246.1,26,246.1z"/>
			<path class="st0" d="M23.1,248.6h10.7l0,1.3h-6.1l3.2,3.1v1.7l-2.9-3l-4.9,3.3v-1.6l4-2.6l-0.9-0.9h-3.1L23.1,248.6z"/>
		</g>
	</g>
	<g>
		<path class="st1" d="M5.2,17.2H3.5v-13C3,4.6,2.5,5.1,1.8,5.5C1.1,6,0.5,6.4,0,6.6v-2c1-0.5,1.8-1.2,2.5-2
			c0.7-0.8,1.2-1.5,1.5-2.2h1.1V17.2z"/>
		<path class="st1" d="M9.4,2.7v-2h9.2v1.6c-0.9,1.1-1.8,2.6-2.7,4.5c-0.9,1.9-1.6,3.8-2.1,5.8c-0.3,1.4-0.6,2.9-0.7,4.6h-1.8
			c0-1.3,0.2-2.9,0.7-4.7c0.4-1.9,1-3.6,1.8-5.4c0.8-1.7,1.6-3.2,2.5-4.4H9.4z"/>
		<path class="st1" d="M4.4,39.4H1.3v2H0.7V26.5h3.7V39.4z M1.3,27.1v11.6h2.5V27.1H1.3z M11.2,40.6c0,0.2,0.1,0.5,0.1,0.7
			c-3.3,1.8-3.7,2-3.9,2.3C7.3,43.3,7.1,43,7,42.8c0.2-0.1,0.6-0.5,0.6-1.4V37H5.4v-6.8H6v6.1h1.6V28H4.9v-0.7h2.7v-3.4h0.6v3.4h2.7
			V28H8.2v8.3H10v-6.1h0.6V37H8.2v5L11.2,40.6z M13.7,41.2c-0.8,1.3-1.9,2.7-2.9,3.6c-0.1-0.1-0.3-0.3-0.5-0.4
			c1-0.9,2.2-2.3,2.7-3.4L13.7,41.2z M17.8,25.6v0.7h-3c-0.2,0.8-0.4,1.8-0.6,2.5h3v11.7h-5.3V28.8h1.7c0.2-0.7,0.4-1.7,0.6-2.5h-3
			v-0.7H17.8z M16.6,29.4h-4.1v3h4.1V29.4z M16.6,33.1h-4.1v3h4.1V33.1z M16.6,36.8h-4.1v3h4.1V36.8z M15.8,40.9
			c0.8,1.1,1.6,2.5,1.9,3.5l-0.5,0.3c-0.3-1-1.1-2.5-2-3.6L15.8,40.9z"/>
		<path class="st1" d="M5,68.3V51.7h1.9v14.7h7v2H5z"/>
		<path class="st1" d="M4,93.9V77.2h10.2v2H5.9v5.1h7.8v2H5.9v5.7h8.7v2H4z"/>
		<path class="st1" d="M3.4,119.5v-16.6h4.9c1.1,0,1.9,0.1,2.5,0.2c0.8,0.2,1.5,0.6,2.1,1.2c0.7,0.7,1.3,1.7,1.7,2.8
			c0.4,1.2,0.6,2.5,0.6,4c0,1.3-0.1,2.4-0.4,3.4c-0.3,1-0.6,1.8-1,2.4c-0.4,0.6-0.8,1.1-1.3,1.5c-0.5,0.4-1,0.6-1.7,0.8
			c-0.7,0.2-1.4,0.3-2.3,0.3H3.4z M5.3,117.5h3c0.9,0,1.7-0.1,2.2-0.3c0.5-0.2,1-0.5,1.3-0.9c0.4-0.5,0.8-1.2,1-2.1
			c0.2-0.9,0.4-2,0.4-3.2c0-1.7-0.2-3.1-0.7-4c-0.5-0.9-1.1-1.6-1.8-1.9c-0.5-0.2-1.3-0.3-2.4-0.3h-3V117.5z"/>
		<path class="st1" d="M6,131.3c-0.7,1.2-1.5,2.4-2.3,3.6v12.4H3.2v-11.7c-0.9,1.2-1.9,2.3-2.9,3.1c-0.1-0.1-0.3-0.4-0.5-0.5
			c2.1-1.8,4.3-4.5,5.7-7.1L6,131.3z M5.2,126.5c-1.2,1.9-3.1,4-4.8,5.4c-0.1-0.1-0.3-0.4-0.4-0.5c1.7-1.4,3.6-3.4,4.6-5.2
			L5.2,126.5z M17.9,134.8h-3.3v11.2c0,0.7-0.2,1-0.7,1.1c-0.5,0.1-1.5,0.1-3.6,0.1c0-0.2-0.1-0.4-0.3-0.6c1.7,0,3,0,3.4,0
			c0.4,0,0.5-0.1,0.5-0.6v-11.2H6.6v-0.7h11.3V134.8z M17.3,128.4H7.5v-0.7h9.8V128.4z"/>
		<path class="st1" d="M17.5,157.9C17.2,168,17,171.1,16.3,172c-0.3,0.4-0.6,0.6-1.1,0.6c-0.5,0-1.5,0-2.4-0.1
			c0-0.2-0.1-0.5-0.2-0.7c1.1,0.1,2.1,0.1,2.5,0.1c0.3,0,0.5,0,0.7-0.3c0.5-0.7,0.8-4,1.1-13.6H13c-0.2,6.2-1.1,11.6-4.8,14.7
			c-0.1-0.1-0.4-0.3-0.6-0.4c0.7-0.6,1.3-1.2,1.8-2c-3.3,0.5-6.8,1-9.1,1.4l-0.1-0.7c1.2-0.2,2.8-0.4,4.6-0.6v-2.7h-4v-0.7h4v-1.9
			h-4v-6.7h4v-2H0.1v-0.7h4.6v-2.2c-1.4,0.2-2.8,0.3-4.1,0.3c0-0.2-0.1-0.4-0.2-0.6c2.9-0.2,6.7-0.6,8.6-1.2l0.4,0.6
			c-1.1,0.3-2.6,0.6-4.1,0.7v2.3H10v0.7H5.3v2h4.2v6.7H5.3v1.9h4.2v0.7H5.3v2.6c1.4-0.2,2.9-0.4,4.3-0.6l0,0.4c2-3,2.6-7.4,2.8-12.1
			H9.7v-0.7h2.8c0.1-1.8,0.1-3.6,0.1-5.4h0.6c0,1.8,0,3.7-0.1,5.4h4.4V157.9z M1.3,161.5h3.4v-2.3H1.3V161.5z M4.7,164.5v-2.3H1.3
			v2.3H4.7z M5.3,159.2v2.3h3.6v-2.3H5.3z M8.9,162.2H5.3v2.3h3.6V162.2z"/>
		<path class="st1" d="M5.7,195.4c-0.5-0.7-1.8-2.7-2.6-3.7c-0.4,2.4-1.2,4.7-2.6,6.7c-0.1-0.2-0.3-0.3-0.5-0.4
			c2.7-3.7,3-8.1,3-12.7v-8h0.6v8c0,1.9-0.1,3.8-0.3,5.7c0.7,0.8,2.5,3.3,2.9,3.9L5.7,195.4z M1.2,187.4c-0.2-1.4-0.7-4-1.1-5.9
			l0.5-0.1c0.5,2,1,4.4,1.2,5.8L1.2,187.4z M5.9,181.8c-0.3,1.7-0.7,3.7-1.1,5.1l-0.5-0.3c0.3-1.3,0.8-3.6,1-5.1L5.9,181.8z
			 M11,178.6c-0.9,3.9-3,7.1-5,8.6c-0.1-0.2-0.3-0.4-0.4-0.5c1-0.7,2.1-2,3-3.5c-0.6-0.7-1.5-1.6-2.3-2.2l0.4-0.4
			c0.8,0.6,1.6,1.4,2.2,2.1c0.6-1.1,1-2.2,1.4-3.5H6.7v-0.7h3.8l0.1,0L11,178.6z M15.1,192.9c-0.5,1.3-1.2,2.9-1.8,4h4.4v0.7h-12
			v-0.7h6.9c0.7-1.2,1.4-3,1.8-4.3L15.1,192.9z M16,192.1H7.8v-4.9H16V192.1z M15.4,187.9h-7v3.5h7V187.9z M9.9,196.6
			c-0.2-1-0.7-2.5-1.2-3.7l0.5-0.2c0.6,1.1,1.1,2.7,1.2,3.7L9.9,196.6z M8.9,184.4h5.5v0.7H8.9V184.4z M17.7,181.2
			c-0.7,0.8-1.8,1.7-2.6,2.3c0.9,1.3,1.9,2.3,2.9,3.1c-0.2,0.1-0.3,0.3-0.4,0.5c-2.3-1.8-4.1-4.2-5.5-9.4l0.5-0.2
			c0.3,1.2,0.7,2.2,1,3.1c0.7-0.7,1.7-1.7,2.2-2.4l0.4,0.4c-0.7,0.9-1.6,1.8-2.4,2.5c0.3,0.7,0.6,1.3,1,1.9c0.8-0.7,1.9-1.6,2.5-2.3
			L17.7,181.2z"/>
		<path class="st1" d="M2.5,205.9c-0.6,1.2-1.3,2.3-2.1,3.1c-0.1-0.1-0.4-0.3-0.5-0.4c1.3-1.4,2.5-3.5,3.2-5.7l0.6,0.2
			c-0.2,0.7-0.5,1.4-0.8,2.1h5.8v0.7H2.5z M4.6,212.5h3.6v0.7H4.6v1.3c0.7,0.7,2.8,3.1,3.3,3.7l-0.4,0.6c-0.5-0.7-2-2.5-2.9-3.5v8.7
			H4.1v-9.5c-0.9,2.5-2.3,5.3-3.5,7c-0.1-0.1-0.3-0.3-0.5-0.5c1.4-1.7,3-4.9,3.8-7.7H0.4v-0.7h3.7v-3h0.6V212.5z M4.7,206.4
			c0.8,0.7,1.6,1.8,2,2.5l-0.4,0.5c-0.4-0.7-1.2-1.8-2-2.6L4.7,206.4z M17.8,205.2v0.7h-6.7c-0.6,1.2-1.3,2.2-2,3
			c-0.1-0.1-0.4-0.3-0.5-0.4c1.3-1.4,2.4-3.3,2.9-5.6l0.6,0.1c-0.2,0.7-0.5,1.5-0.8,2.1H17.8z M9,210.3h8v13.5h-0.6v-1H9.5v1.1H9
			V210.3z M9.5,211v3.2h6.8V211H9.5z M16.4,218.1v-3.3H9.5v3.3H16.4z M16.4,222.1v-3.3H9.5v3.3H16.4z M15.3,209.5
			c-0.5-0.8-1.4-2-2.1-2.8l0.4-0.3c0.8,0.8,1.7,2,2.1,2.7L15.3,209.5z"/>
		<path class="st1" d="M17.8,245.8H9.3v3.8H8.7v-3.8H0.3v-0.7h8.4v-2.5H2.5v-8.7h6.2v-2.3H1v-0.7h7.6v-2.3h0.6v2.3H17v0.7H9.3v2.3
			h6.4v8.7H9.3v2.5h8.5V245.8z M3.1,237.9h5.6v-3.3H3.1V237.9z M8.7,241.9v-3.4H3.1v3.4H8.7z M9.3,234.5v3.3h5.8v-3.3H9.3z
			 M15.1,238.5H9.3v3.4h5.8V238.5z"/>
	</g>
</g>
</svg>
