<?xml version="1.0" encoding="utf-8"?>
<!-- Generator: Adobe Illustrator 23.0.3, SVG Export Plug-In . SVG Version: 6.00 Build 0)  -->
<svg version="1.1" id="Layer_1" focusable="false" xmlns="http://www.w3.org/2000/svg" xmlns:xlink="http://www.w3.org/1999/xlink"
	 x="0px" y="0px" viewBox="0 0 36.2 44.5" style="enable-background:new 0 0 36.2 44.5;" xml:space="preserve">
<style type="text/css">
	.st0{fill:#888888;}
</style>
<path class="st0" d="M2.4,0.4l21.1,21.1c0.5,0.5,0.5,1.2,0,1.7L2.4,44.3c-0.5,0.5-1.2,0.5-1.7,0L0,43.5c-0.5-0.5-0.5-1.2,0-1.7
	l19.5-19.5L0,2.8c-0.5-0.5-0.5-1.2,0-1.7l0.7-0.7C1.2-0.1,1.9-0.1,2.4,0.4z M13.5,0.4l-0.7,0.7c-0.5,0.5-0.5,1.2,0,1.7l19.5,19.5
	L12.8,41.9c-0.5,0.5-0.5,1.2,0,1.7l0.7,0.7c0.5,0.5,1.2,0.5,1.7,0l21.1-21.1c0.5-0.5,0.5-1.2,0-1.7L15.2,0.4
	C14.7-0.1,14-0.1,13.5,0.4z"/>
</svg>
