<?xml version="1.0" encoding="utf-8"?>
<!-- Generator: Adobe Illustrator 23.0.3, SVG Export Plug-In . SVG Version: 6.00 Build 0)  -->
<svg version="1.1" id="Layer_1" xmlns="http://www.w3.org/2000/svg" xmlns:xlink="http://www.w3.org/1999/xlink" x="0px" y="0px"
	 viewBox="0 0 199.3 19.1" style="enable-background:new 0 0 199.3 19.1;" xml:space="preserve">
<style type="text/css">
	.st0{fill:#FFFFFF;}
</style>
<g>
	<g>
		<g>
			<path class="st0" d="M22.9,9.6c0-2.8,0.7-5,2.1-6.6c1.4-1.6,3.3-2.4,5.8-2.4c2.5,0,4.5,0.8,5.9,2.3c1.4,1.5,2.1,3.7,2.1,6.5
				c0,2-0.3,3.7-0.9,5c-0.6,1.3-1.5,2.3-2.6,3c-1.1,0.7-2.6,1.1-4.2,1.1c-1.7,0-3.1-0.3-4.3-0.9c-1.1-0.6-2.1-1.6-2.8-3
				C23.2,13.3,22.9,11.6,22.9,9.6z M27.6,9.6c0,1.8,0.3,3,0.9,3.8c0.6,0.8,1.4,1.1,2.3,1.1c1,0,1.8-0.4,2.3-1.1
				c0.6-0.7,0.8-2.1,0.8-4c0-1.6-0.3-2.8-0.9-3.6c-0.6-0.8-1.4-1.1-2.4-1.1c-0.9,0-1.7,0.4-2.3,1.1C27.9,6.6,27.6,7.9,27.6,9.6z"/>
			<path class="st0" d="M49.3,11.1l4.2,1.4c-0.3,1.3-0.7,2.4-1.3,3.3c-0.6,0.9-1.3,1.6-2.2,2c-0.9,0.4-2,0.7-3.4,0.7
				c-1.7,0-3-0.3-4.1-0.8c-1.1-0.5-2-1.5-2.7-2.9c-0.8-1.4-1.1-3.1-1.1-5.3c0-2.9,0.7-5.1,2-6.6c1.3-1.5,3.2-2.3,5.7-2.3
				c1.9,0,3.4,0.4,4.5,1.3c1.1,0.9,1.9,2.2,2.5,4.1l-4.2,1c-0.1-0.5-0.3-0.9-0.5-1.1c-0.3-0.4-0.6-0.7-1-0.9
				c-0.4-0.2-0.8-0.3-1.3-0.3c-1.1,0-1.9,0.5-2.4,1.5c-0.4,0.7-0.6,1.9-0.6,3.4c0,1.9,0.3,3.2,0.8,3.9c0.5,0.7,1.2,1.1,2.2,1.1
				c0.9,0,1.6-0.3,2-0.9C48.7,13.1,49,12.2,49.3,11.1z"/>
			<path class="st0" d="M63.7,11.1l4.2,1.4c-0.3,1.3-0.7,2.4-1.3,3.3c-0.6,0.9-1.3,1.6-2.2,2c-0.9,0.5-2,0.7-3.4,0.7
				c-1.7,0-3-0.3-4.1-0.8c-1.1-0.5-2-1.5-2.7-2.9c-0.8-1.4-1.1-3.1-1.2-5.3c0-2.9,0.7-5.1,2-6.6c1.3-1.5,3.2-2.3,5.7-2.3
				c1.9,0,3.4,0.4,4.5,1.3c1.1,0.9,1.9,2.2,2.5,4.1l-4.2,1c-0.1-0.5-0.3-0.9-0.4-1.1c-0.3-0.4-0.6-0.7-1-0.9
				c-0.4-0.2-0.8-0.3-1.3-0.3c-1.1,0-1.9,0.5-2.5,1.5C58,6.8,57.7,8,57.7,9.5c0,1.9,0.3,3.2,0.8,3.9c0.5,0.7,1.2,1.1,2.2,1.1
				c0.9,0,1.6-0.3,2-0.9C63.2,13.1,63.5,12.2,63.7,11.1z"/>
			<path class="st0" d="M78,0.9l4.7,0l0,10.3c0,1-0.1,2-0.4,2.9C82,15,81.6,15.8,81,16.5c-0.6,0.7-1.2,1.2-1.9,1.4
				c-0.9,0.4-2,0.6-3.3,0.6c-0.7,0-1.5-0.1-2.4-0.2c-0.9-0.1-1.6-0.3-2.2-0.7c-0.6-0.4-1.1-0.8-1.6-1.5c-0.5-0.6-0.8-1.3-1-2
				c-0.3-1.1-0.4-2.1-0.4-2.9l0-10.3l4.7,0l0,10.6c0,0.9,0.2,1.7,0.7,2.2c0.5,0.5,1.1,0.8,1.9,0.8c0.8,0,1.4-0.3,1.9-0.8
				c0.5-0.5,0.7-1.3,0.7-2.2L78,0.9z"/>
			<path class="st0" d="M83.7,0.9l7.9,0c1.7,0,3,0.5,3.9,1.4c0.9,0.9,1.3,2.2,1.3,3.9c0,1.8-0.5,3.1-1.4,4.1c-0.9,1-2.4,1.5-4.3,1.5
				l-2.6,0l0,6.4l-4.8,0L83.7,0.9z M88.4,8.3l1.2,0c0.9,0,1.6-0.2,1.9-0.5c0.4-0.4,0.6-0.8,0.6-1.4c0-0.5-0.2-1-0.5-1.4
				c-0.3-0.4-0.9-0.6-1.8-0.6l-1.3,0L88.4,8.3z"/>
			<path class="st0" d="M95.5,0.9l5.2,0l3.1,5.8l3.1-5.8l5.2,0l-5.9,10.1l0,7.3l-4.7,0l0-7.3L95.5,0.9z"/>
		</g>
		<g>
			<path class="st0" d="M6.6,2.7c0-0.6,0.2-1.1,0.9-1.1c0.6,0,0.9,0.6,0.9,1.1c0,0.6-0.2,1.1-0.9,1.1C6.8,3.8,6.6,3.3,6.6,2.7z
				 M5.6,2.7c0,1.1,0.7,2,1.9,2c1.2,0,1.9-0.9,1.9-2c0-1.1-0.7-2-1.9-2C6.3,0.7,5.6,1.6,5.6,2.7z"/>
			<path class="st0" d="M8.2,6.8C8.2,6.4,7.9,6.2,7.5,6.2c-0.6,0-0.9,0.6-0.9,1.1c0,0.6,0.2,1.1,0.9,1.1c0.5,0,0.7-0.3,0.8-0.7h1
				c-0.1,1-0.8,1.5-1.7,1.5c-1.2,0-1.9-0.9-1.9-2c0-1.1,0.7-2,1.9-2c0.8,0,1.7,0.5,1.7,1.4H8.2z"/>
			<path class="st0" d="M13.1,6.8c-0.1-0.4-0.4-0.6-0.8-0.6c-0.6,0-0.9,0.6-0.9,1.1c0,0.6,0.2,1.1,0.9,1.1c0.5,0,0.7-0.3,0.8-0.7h1
				c-0.1,1-0.8,1.5-1.7,1.5c-1.1,0-1.9-0.9-1.9-2c0-1.1,0.7-2,1.9-2c0.8,0,1.7,0.5,1.7,1.4L13.1,6.8z"/>
			<path class="st0" d="M18.8,7.7c0,1.1-0.5,1.6-1.6,1.6c-1.2,0-1.7-0.5-1.7-1.6l0-2.2h1l0,2.3c0,0.5,0.2,0.7,0.7,0.7
				c0.5,0,0.7-0.2,0.7-0.7V5.5l1,0V7.7z"/>
			<path class="st0" d="M16.8,10.9h0.7c0.3,0,0.5,0.1,0.5,0.5c0,0.3-0.2,0.5-0.5,0.5h-0.7L16.8,10.9z M15.8,13.9h1v-1.3h0.8
				c0.8,0,1.4-0.4,1.4-1.3c0-0.9-0.7-1.2-1.4-1.2h-1.8L15.8,13.9z"/>
			<path class="st0" d="M17.7,17.1v1.4l-1,0v-1.4l-1.4-2.4h1.1l0.8,1.5l0.8-1.5l1.1,0L17.7,17.1z"/>
			<path class="st0" d="M4.7,2.7c0,1.2-0.9,2.1-2.1,2.1S0.5,3.9,0.5,2.7c0-1.2,0.9-2.1,2.1-2.1C3.7,0.6,4.7,1.6,4.7,2.7z"/>
			<path class="st0" d="M14.4,2.7c0,1.2-0.9,2.1-2.1,2.1c-1.2,0-2.1-0.9-2.1-2.1c0-1.2,0.9-2.1,2.1-2.1C13.4,0.6,14.4,1.6,14.4,2.7z
				"/>
			<path class="st0" d="M19.2,2.7c0,1.2-0.9,2.1-2.1,2.1C16,4.8,15,3.9,15,2.7c0-1.2,0.9-2.1,2.1-2.1C18.3,0.6,19.2,1.6,19.2,2.7z"
				/>
			<path class="st0" d="M4.7,7.3c0,1.2-0.9,2.1-2.1,2.1c-1.2,0-2.1-0.9-2.1-2.1c0-1.2,0.9-2.1,2.1-2.1C3.7,5.2,4.7,6.2,4.7,7.3z"/>
			<path class="st0" d="M4.7,11.9c0,1.2-0.9,2.1-2.1,2.1c-1.2,0-2.1-0.9-2.1-2.1c0-1.2,0.9-2.1,2.1-2.1C3.7,9.8,4.7,10.8,4.7,11.9z"
				/>
			<path class="st0" d="M9.5,11.9c0,1.2-0.9,2.1-2.1,2.1c-1.2,0-2.1-0.9-2.1-2.1c0-1.2,0.9-2.1,2.1-2.1C8.6,9.8,9.5,10.8,9.5,11.9z"
				/>
			<path class="st0" d="M14.4,11.9c0,1.2-0.9,2.1-2.1,2.1c-1.2,0-2.1-0.9-2.1-2.1c0-1.2,0.9-2.1,2.1-2.1
				C13.4,9.8,14.4,10.8,14.4,11.9z"/>
			<path class="st0" d="M4.7,16.5c0,1.2-0.9,2.1-2.1,2.1c-1.2,0-2.1-0.9-2.1-2.1c0-1.2,0.9-2.1,2.1-2.1C3.7,14.4,4.7,15.4,4.7,16.5z
				"/>
			<path class="st0" d="M9.5,16.5c0,1.2-0.9,2.1-2.1,2.1c-1.2,0-2.1-0.9-2.1-2.1c0-1.2,0.9-2.1,2.1-2.1C8.6,14.4,9.5,15.4,9.5,16.5z
				"/>
			<path class="st0" d="M14.4,16.5c0,1.2-0.9,2.1-2.1,2.1c-1.2,0-2.1-0.9-2.1-2.1c0-1.2,0.9-2.1,2.1-2.1
				C13.4,14.4,14.4,15.4,14.4,16.5z"/>
		</g>
	</g>
	<g>
		<path class="st0" d="M119,3.9h1.8l0.8,2.2h1.9l0.9-2.2h1.7l-0.9,2.2h1.6v1.6h-3.5v1.8h3.2v1.7h-3.2v6.7h-1.6v-6.7h-3.1V9.5h3.1
			V7.8h-3.4V6.2h1.5L119,3.9z M119.5,12.2h1.6l-0.6,3.7c-0.2,0.9-0.5,1.3-1.2,1.3h-0.9v-1.8h0.4c0.1,0,0.2-0.2,0.3-0.6L119.5,12.2z
			 M121.5,0.6h1.9v1.2h3.2v1.6h-8.1V1.8h3V0.6z M124,12.4h1.6l0.4,2.4c0,0.3,0.1,0.4,0.2,0.4h0.6V17h-1.2c-0.5,0-0.8-0.4-0.9-1.1
			L124,12.4z M133.5,0.6v1.1c0,1.1-0.5,1.6-1.5,1.6h-3v2.2h4.8v1.6h-0.9v10.8h-1.8V7.1H129V16c0,1-0.5,1.6-1.4,1.6h-0.8v-1.8h0.3
			c0.2,0,0.2-0.1,0.2-0.2v-14h4.1c0.3,0,0.5-0.3,0.5-0.9H133.5z"/>
		<path class="st0" d="M139.6,2.5v1.8h-1.1v1.5h0.9v1.9h-0.9v8.6c0,0.5-0.1,0.9-0.4,1.2c-0.2,0.3-0.5,0.4-1,0.4h-1.9V16h1.3
			c0.2,0,0.3-0.3,0.3-0.8v-5.1l-0.7,2.9c-0.2,0.6-0.3,1-0.6,1h-1v-1.8h0.1c0.3,0,0.4-0.3,0.5-0.8l1.1-4.8c0.2-0.6,0.3-0.9,0.5-0.9
			V4.3H135V2.5h1.9V0.9h1.7v1.6H139.6z M142.6,0.8h1.7v0.5h5.6v1.3h-5.6v0.7h5.5v2.2h-1.7V4.7h-6.5V16c0,1.2-0.5,1.8-1.6,1.8h-1
			v-1.6h0.7c0.2,0,0.4-0.2,0.4-0.5V3.3h2.7V0.8z M149.8,9.7V11h-4.1l-0.4,0.8h2.1v0.7h0.7c0.2,0,0.4-0.3,0.5-0.9h1.5
			c-0.1,0.8-0.2,1.4-0.4,1.7c-0.2,0.3-0.5,0.5-0.9,0.5h-1.3v2.9c0,0.8-0.5,1.2-1.4,1.2h-1.5V17c-0.3,0.3-0.6,0.4-1,0.4H142v-1.2h1
			c0.4,0,0.8-0.3,1.1-1c-0.1,0-0.3,0.1-0.4,0.1h-1.5v-1.2h0.9c0.3,0,0.6-0.2,0.8-0.6h1.4c-0.3,0.8-0.5,1.3-0.8,1.4c0,0,0,0-0.1,0
			h1.1c-0.2,0.7-0.4,1.2-0.6,1.6h0.6c0.2,0,0.4-0.1,0.4-0.3v-3.2h-1.3c-0.2,0.1-0.3,0.2-0.6,0.2H142V12h1.1c0.1,0,0.2-0.1,0.3-0.2
			l0.4-0.7H142V9.7H149.8z M149.6,5.9v1.3H145v0.4c0,0.2,0.1,0.3,0.3,0.3h4.3v1.3h-5.3c-0.6,0-1-0.2-1-0.7V7.2H142V5.9h1.3V5.2h1.6
			v0.7H149.6z M147.6,14.3h1.5l0.4,1.7c0.1,0.3,0.2,0.4,0.3,0.4h0.3v1.5h-1c-0.4,0-0.7-0.4-0.9-1.1L147.6,14.3z"/>
		<path class="st0" d="M151.6,14.4h1.3l-0.5,2.5c-0.1,0.6-0.4,0.9-0.9,0.9h-0.7v-1.3h0.3c0.1,0,0.1-0.1,0.2-0.4L151.6,14.4z
			 M151.4,1.3h7.7v5.8c0,0.7-0.3,1.1-1,1.1H156v1.1h3.2v1.6H156v1.2h3.5v1.6H151v-1.6h3.5v-1.2h-3.1V9.3h3.1V8.2h-3.1V1.3z
			 M154.5,5.7V2.8h-1.7v0.6h0.9L154.5,5.7z M154.5,6.7V6h-0.9l-0.8-2.2v2.9H154.5z M153.3,14.4h1.2l0.4,1.7c0,0.2,0.1,0.3,0.2,0.3
			h0.3v1.3h-0.7c-0.4,0-0.7-0.3-0.8-0.8L153.3,14.4z M155.4,14.4h1.2l0.4,1.7c0,0.2,0.1,0.3,0.2,0.3h0.3v1.3h-0.7
			c-0.4,0-0.7-0.3-0.8-0.8L155.4,14.4z M156,2.8v2.9l0.9-2.2h0.9V2.8H156z M157.4,6.7c0.3,0,0.4-0.2,0.4-0.5V4L157,6h-1v0.7H157.4z
			 M157.6,14.4h1.2l0.4,1.7c0,0.2,0.1,0.3,0.2,0.3h0.3v1.3h-0.7c-0.4,0-0.6-0.3-0.8-0.8L157.6,14.4z M161.3,0.7h1.7v2.4h3.3v1.6H163
			v3.9h3v7.7c0,0.9-0.4,1.3-1.2,1.3H160v-9h1.3V0.7z M164,16c0.3,0,0.4-0.2,0.4-0.5v-5.4h-2.7V16H164z"/>
		<path class="st0" d="M174.4,0.6h2.1v0.9h6.1v1.4h-12.9v13c0,1.2-0.6,1.9-1.7,1.9h-0.9v-1.6h0.6c0.2,0,0.3-0.2,0.3-0.5V1.4h6.3V0.6
			z M182.7,7.9v1.3H177v0.7h4.9v4.3c0,0.7-0.5,1.1-1.5,1.1h-9.6V9.8h4.6V9.2h-5.4V7.9H182.7z M173.1,15.7h2.2l-1.1,1.5
			c-0.2,0.3-0.6,0.5-1.2,0.5h-3v-1.2h2.1c0.2,0,0.3-0.1,0.4-0.2L173.1,15.7z M182.4,3.9v1.3h-1.9v1.1c0,0.5-0.4,0.8-1.1,0.8h-7.4
			V5.2h-1.8V3.9h1.8V3.2h1.6v0.7h5.3V3.2h1.6v0.7H182.4z M172.5,12h2.9v-0.9h-2.9V12z M175,14h0.4v-0.8h-2.9V14H175z M173.7,5.2v0.7
			h5c0.2,0,0.3-0.1,0.3-0.2V5.2H173.7z M177,11.1V12h3.3v-0.9H177z M177,13.2V14h2.9c0.3,0,0.4-0.1,0.4-0.3v-0.5H177z M177.1,15.7
			h2.3l0.4,0.6c0.1,0.1,0.3,0.2,0.5,0.2h2.3v1.2h-3.4c-0.4,0-0.8-0.2-1.1-0.5L177.1,15.7z"/>
		<path class="st0" d="M185.6,1.1h2.1l-0.6,1.4h3.5V0.7h1.9v1.8h5.9v1.9h-5.9v3h6.5v1.9h-15.4V7.4h7v-3h-4.3L186,5
			c-0.2,0.4-0.4,0.6-0.7,0.6h-1.6V3.7h0.5c0.2,0,0.4-0.2,0.5-0.5L185.6,1.1z M184.5,11.1h13.4v5.1c0,0.8-0.5,1.2-1.5,1.2h-11.9V11.1
			z M195.5,15.7c0.4,0,0.5-0.2,0.5-0.5v-2.4h-9.6v2.8H195.5z"/>
	</g>
</g>
</svg>
