<?xml version="1.0" encoding="utf-8"?>
<!-- Generator: Adobe Illustrator 23.0.3, SVG Export Plug-In . SVG Version: 6.00 Build 0)  -->
<svg version="1.1" id="Layer_1" xmlns="http://www.w3.org/2000/svg" xmlns:xlink="http://www.w3.org/1999/xlink" x="0px" y="0px"
	 viewBox="0 0 269.7 72.6" style="enable-background:new 0 0 269.7 72.6;" xml:space="preserve">
<style type="text/css">
	.st0{fill:#47AFE3;}
</style>
<g>
	<g>
		<g>
			<path class="st0" d="M54.4,21.6c0-6.8,1.7-12.1,5-15.9c3.3-3.8,8-5.7,14-5.7c6.1,0,10.8,1.9,14.1,5.6c3.3,3.7,5,8.9,5,15.6
				c0,4.9-0.7,8.9-2.2,12c-1.4,3.1-3.5,5.6-6.2,7.3c-2.7,1.7-6.1,2.6-10.2,2.6c-4.1,0-7.6-0.7-10.3-2.2c-2.7-1.5-4.9-3.9-6.6-7.1
				C55.3,30.6,54.4,26.5,54.4,21.6z M65.8,21.7c0,4.2,0.7,7.2,2.1,9.1c1.4,1.8,3.2,2.8,5.6,2.8c2.4,0,4.3-0.9,5.6-2.7
				c1.3-1.8,2-5,2-9.7c0-3.9-0.7-6.8-2.1-8.6c-1.4-1.8-3.3-2.7-5.7-2.7c-2.3,0-4.1,0.9-5.5,2.8C66.5,14.4,65.8,17.4,65.8,21.7z"/>
			<path class="st0" d="M117.9,25.3l10,3.4c-0.7,3.2-1.7,5.8-3.2,7.9c-1.4,2.1-3.2,3.7-5.3,4.8c-2.1,1.1-4.8,1.6-8.1,1.6
				c-4,0-7.2-0.6-9.8-2c-2.6-1.3-4.7-3.6-6.6-6.9c-1.8-3.3-2.8-7.6-2.8-12.7c0-6.9,1.6-12.2,4.8-15.9c3.2-3.7,7.8-5.6,13.7-5.6
				c4.6,0,8.3,1.1,10.9,3.2c2.7,2.1,4.6,5.4,5.9,9.8l-10.1,2.5c-0.3-1.3-0.7-2.2-1.1-2.8c-0.6-1-1.4-1.7-2.3-2.2
				c-0.9-0.5-2-0.8-3.1-0.8c-2.5,0-4.5,1.2-5.9,3.5c-1,1.7-1.5,4.5-1.5,8.2c0,4.6,0.6,7.8,1.9,9.5c1.2,1.7,3,2.6,5.2,2.6
				c2.2,0,3.8-0.7,4.9-2.1S117.4,28,117.9,25.3z"/>
			<path class="st0" d="M152.7,25.3l10,3.4c-0.6,3.2-1.7,5.8-3.1,7.9c-1.4,2.1-3.2,3.7-5.3,4.8c-2.1,1.1-4.8,1.6-8.1,1.6
				c-4,0-7.2-0.6-9.8-2c-2.5-1.3-4.7-3.6-6.6-6.9c-1.9-3.3-2.8-7.6-2.8-12.7c0-6.9,1.6-12.2,4.8-15.9c3.2-3.7,7.8-5.6,13.7-5.6
				c4.6,0,8.3,1.1,10.9,3.2c2.6,2.1,4.6,5.4,5.9,9.8l-10.1,2.5c-0.3-1.3-0.7-2.2-1.1-2.8c-0.6-1-1.4-1.7-2.3-2.2
				c-0.9-0.5-2-0.8-3.1-0.8c-2.6,0-4.5,1.2-5.9,3.5c-1,1.7-1.5,4.5-1.5,8.2c0,4.6,0.6,7.8,1.9,9.5c1.2,1.7,3,2.6,5.2,2.6
				c2.2,0,3.8-0.7,4.9-2.1C151.5,30,152.3,28,152.7,25.3z"/>
			<path class="st0" d="M187,0.6l11.4,0l0,24.9c0,2.5-0.3,4.8-1,7c-0.7,2.2-1.7,4.1-3.2,5.8c-1.4,1.6-3,2.8-4.5,3.4
				c-2.2,0.9-4.9,1.4-8,1.4c-1.8,0-3.7-0.2-5.8-0.4c-2.1-0.3-3.9-0.8-5.3-1.7c-1.4-0.8-2.7-2-3.9-3.6c-1.2-1.6-2-3.1-2.4-4.8
				c-0.7-2.6-1.1-5-1.1-7l0-24.9h11.4l0,25.4c0,2.3,0.6,4,1.7,5.3c1.1,1.3,2.6,1.9,4.6,1.9c1.9,0,3.5-0.6,4.6-1.9
				c1.1-1.3,1.7-3.1,1.6-5.4L187,0.6z"/>
			<path class="st0" d="M200.7,0.6l18.9,0c4.1,0,7.2,1.1,9.3,3.3c2.1,2.2,3.1,5.4,3.1,9.5c0,4.2-1.1,7.5-3.3,9.9
				c-2.2,2.4-5.7,3.6-10.2,3.6l-6.2,0l0,15.5h-11.5L200.7,0.6z M212.2,18.4l2.8,0c2.2,0,3.7-0.4,4.6-1.3c0.9-0.9,1.3-2,1.3-3.3
				c0-1.3-0.4-2.4-1.1-3.3c-0.8-0.9-2.2-1.4-4.3-1.4h-3.2V18.4z"/>
			<path class="st0" d="M229.1,0.6l12.6,0l7.4,13.9l7.4-13.9h12.5l-14.3,24.3l0,17.5h-11.4l0-17.5L229.1,0.6z"/>
		</g>
		<g>
			<path class="st0" d="M15.2,5c0-1.3,0.6-2.7,2.1-2.7c1.5,0,2.1,1.3,2.1,2.7c0,1.4-0.6,2.7-2.1,2.7C15.8,7.7,15.2,6.4,15.2,5z
				 M12.9,5c0,2.6,1.6,4.8,4.5,4.8c2.9,0,4.5-2.1,4.5-4.8c0-2.6-1.6-4.8-4.5-4.8C14.5,0.3,12.9,2.4,12.9,5z"/>
			<path class="st0" d="M19.2,14.8c-0.1-0.9-0.9-1.4-1.8-1.4c-1.5,0-2.1,1.4-2.1,2.7c0,1.3,0.6,2.7,2.1,2.7c1.1,0,1.7-0.6,1.8-1.7
				h2.4c-0.1,2.4-1.9,3.7-4.2,3.7c-2.8,0-4.6-2.1-4.6-4.7s1.8-4.7,4.5-4.7c2,0,4.1,1.2,4.2,3.4L19.2,14.8L19.2,14.8z"/>
			<path class="st0" d="M30.9,14.8c-0.1-0.9-0.8-1.4-1.8-1.4c-1.5,0-2.1,1.4-2.1,2.7c0,1.4,0.6,2.7,2.1,2.7c1.1,0,1.8-0.6,1.8-1.7
				h2.4c-0.1,2.3-1.9,3.7-4.2,3.7c-2.8,0-4.5-2.1-4.5-4.7c0-2.6,1.8-4.8,4.5-4.8c2,0,4.1,1.3,4.2,3.5L30.9,14.8z"/>
			<path class="st0" d="M44.6,17c0,2.6-1.2,4-4,4c-2.8,0-4-1.3-4-4v-5.3h2.4v5.5c0,1.2,0.4,1.8,1.6,1.8s1.6-0.6,1.6-1.8v-5.5l2.4,0
				L44.6,17L44.6,17z"/>
			<path class="st0" d="M39.9,24.6h1.6c0.7,0,1.3,0.3,1.3,1.2c0,0.8-0.5,1.1-1.3,1.1h-1.6V24.6z M37.5,31.9h2.4v-3h2
				c2,0,3.3-0.9,3.3-3.1c0-2.2-1.6-3-3.3-2.9h-4.3L37.5,31.9z"/>
			<path class="st0" d="M42,39.7v3.4l-2.4,0v-3.4L36.3,34H39l1.8,3.7l1.8-3.7l2.7,0L42,39.7z"/>
			<path class="st0" d="M10.6,5.1c0,2.8-2.3,5.1-5,5.1S0.5,7.9,0.5,5.1c0-2.8,2.3-5,5-5C8.4,0,10.6,2.3,10.6,5.1z"/>
			<path class="st0" d="M34,5.1c0,2.8-2.3,5.1-5,5.1c-2.8,0-5.1-2.2-5.1-5.1c0-2.8,2.3-5,5-5C31.7,0,34,2.3,34,5.1z"/>
			<path class="st0" d="M45.6,5c0,2.8-2.2,5.1-5,5.1c-2.8,0-5.1-2.3-5.1-5.1c0-2.8,2.3-5.1,5.1-5.1C43.4,0,45.6,2.3,45.6,5z"/>
			<path class="st0" d="M10.6,16.1c0,2.8-2.3,5-5.1,5.1c-2.8,0-5.1-2.3-5.1-5s2.3-5,5-5C8.4,11.1,10.6,13.4,10.6,16.1z"/>
			<path class="st0" d="M10.7,27.2c0,2.8-2.3,5.1-5.1,5.1c-2.8,0-5.1-2.3-5.1-5c0-2.8,2.3-5.1,5-5.1S10.7,24.4,10.7,27.2z"/>
			<path class="st0" d="M22.3,27.2c0,2.8-2.2,5.1-5,5.1c-2.8,0-5.1-2.3-5.1-5.1s2.3-5.1,5.1-5.1C20.1,22.2,22.3,24.4,22.3,27.2z"/>
			<path class="st0" d="M34,27.2c0,2.8-2.2,5.1-5,5.1c-2.8,0-5-2.3-5.1-5.1c0-2.8,2.3-5.1,5-5.1S34,24.4,34,27.2z"/>
			<path class="st0" d="M10.7,38.3c0,2.8-2.3,5.1-5.1,5.1s-5.1-2.2-5.1-5c0-2.8,2.3-5.1,5.1-5.1C8.4,33.2,10.7,35.5,10.7,38.3z"/>
			<path class="st0" d="M22.3,38.3c0,2.8-2.2,5.1-5,5.1c-2.8,0-5.1-2.3-5.1-5c0-2.8,2.3-5.1,5.1-5.1C20.1,33.2,22.3,35.5,22.3,38.3z
				"/>
			<path class="st0" d="M34,38.3c0,2.8-2.3,5-5.1,5c-2.8,0-5-2.3-5-5c0-2.8,2.3-5.1,5-5.1C31.7,33.2,34,35.5,34,38.3z"/>
		</g>
	</g>
	<g>
		<g>
			<path class="st0" d="M1.9,55.1h2.2l1,2.8h2.3l1.1-2.8h2.2l-1.1,2.8h2v1.9H7.2V62h3.9v2.1H7.2v8.3h-2v-8.3H1.4V62h3.8v-2.2H1.1
				v-1.9h1.8L1.9,55.1z M2.5,65.3h2L3.7,70c-0.2,1.1-0.7,1.6-1.5,1.6H1.2v-2.2h0.4c0.1,0,0.3-0.2,0.4-0.7L2.5,65.3z M5,50.9h2.4v1.5
				h3.9v1.9H1.2v-1.9H5V50.9z M8.1,65.6h2l0.4,2.9c0.1,0.4,0.1,0.6,0.2,0.6h0.7v2.2H10c-0.6,0-0.9-0.5-1.1-1.4L8.1,65.6z M19.9,50.9
				v1.3c0,1.3-0.6,2-1.8,2h-3.7V57h6v2h-1.2v13.4H17V59h-2.7v11.1c0,1.3-0.6,1.9-1.7,1.9h-1v-2.2H12c0.2,0,0.3-0.1,0.3-0.3V52.1h5
				c0.4,0,0.6-0.4,0.6-1.2H19.9z"/>
			<path class="st0" d="M28.1,53.2v2.2h-1.3v1.8h1.2v2.3h-1.2v10.7c0,0.6-0.2,1.1-0.5,1.5c-0.3,0.4-0.7,0.6-1.2,0.6h-2.3v-2.2h1.6
				c0.3,0,0.4-0.3,0.4-1v-6.3l-0.9,3.6c-0.2,0.8-0.4,1.2-0.7,1.2h-1.3v-2.2H22c0.3,0,0.5-0.3,0.7-1l1.4-6c0.2-0.7,0.4-1.1,0.6-1.1
				v-1.9h-2.3v-2.2h2.3v-1.9h2.1v1.9L28.1,53.2L28.1,53.2z M31.8,51.1h2.1v0.7h7v1.6h-7v0.8h6.8v2.7h-2.1V56h-8.1v14.1
				c0,1.5-0.7,2.2-2,2.2h-1.3v-1.9h0.8c0.3,0,0.4-0.2,0.4-0.6V54.2h3.3V51.1z M40.7,62.2v1.7h-5.1l-0.5,0.9h2.6v0.8h0.8
				c0.3,0,0.5-0.4,0.6-1.1h1.8c-0.1,1-0.2,1.8-0.5,2.2c-0.3,0.4-0.6,0.6-1.1,0.6h-1.6v3.7c0,1-0.6,1.5-1.7,1.5h-1.8v-1.1
				c-0.4,0.4-0.8,0.5-1.2,0.5H31v-1.5h1.2c0.5,0,1-0.4,1.3-1.2c-0.2,0.1-0.3,0.1-0.5,0.1h-1.8v-1.5h1.2c0.4,0,0.7-0.3,1-0.8H35
				c-0.3,1-0.6,1.6-0.9,1.8c0,0,0,0-0.1,0h1.3c-0.2,0.9-0.5,1.5-0.7,1.9h0.7c0.3,0,0.4-0.1,0.4-0.4v-4h-1.6
				c-0.2,0.2-0.4,0.3-0.7,0.3h-2.3V65h1.4c0.2,0,0.3-0.1,0.4-0.3l0.4-0.9H31v-1.7H40.7z M40.6,57.5v1.6h-5.8v0.5
				c0,0.2,0.1,0.4,0.3,0.4h5.4v1.6h-6.5c-0.8,0-1.2-0.3-1.2-0.9v-1.5h-1.6v-1.6h1.6v-0.9h2v0.9L40.6,57.5L40.6,57.5z M38,67.9h1.8
				l0.5,2.1c0.1,0.3,0.2,0.5,0.4,0.5h0.4v1.9h-1.2c-0.5,0-0.9-0.5-1.2-1.4L38,67.9z"/>
			<path class="st0" d="M43.5,68.1h1.7l-0.6,3.1c-0.2,0.7-0.5,1.1-1.1,1.1h-0.9v-1.7H43c0.1,0,0.2-0.1,0.2-0.4L43.5,68.1z
				 M43.3,51.8h9.6v7.2c0,0.9-0.4,1.4-1.3,1.4H49v1.4H53v1.9H49v1.5h4.3v1.9H42.8v-1.9h4.3v-1.5h-3.9v-1.9h3.9v-1.4h-3.9
				C43.3,60.3,43.3,51.8,43.3,51.8z M47.1,57.2v-3.6H45v0.8h1.2L47.1,57.2z M47.1,58.5v-0.8H46l-1-2.8v3.6
				C45,58.5,47.1,58.5,47.1,58.5z M45.7,68.1h1.5l0.5,2.1c0.1,0.3,0.1,0.4,0.3,0.4h0.3v1.7h-0.9c-0.5,0-0.8-0.3-1-1L45.7,68.1z
				 M48.3,68.1h1.5l0.5,2.1c0.1,0.3,0.2,0.4,0.3,0.4h0.3v1.7H50c-0.5,0-0.8-0.3-1-1L48.3,68.1z M49,53.6v3.6l1.1-2.8h1.1v-0.8
				L49,53.6L49,53.6z M50.7,58.5c0.4,0,0.5-0.2,0.5-0.6v-2.8l-1,2.6H49v0.8L50.7,58.5L50.7,58.5z M51,68.1h1.5l0.4,2.1
				c0,0.3,0.1,0.4,0.2,0.4h0.3v1.7h-0.9c-0.5,0-0.8-0.3-0.9-1L51,68.1z M55.6,51h2.1v3h4.1v2h-4.1v4.8h3.7v9.5
				c0,1.1-0.5,1.6-1.5,1.6h-6V60.9h1.6V51z M58.9,70.1c0.4,0,0.5-0.2,0.5-0.6v-6.7h-3.3v7.3H58.9z"/>
			<path class="st0" d="M72.4,50.8h2.7v1.1h7.6v1.8H66.5v16.2c0,1.6-0.7,2.3-2.1,2.3h-1v-1.9H64c0.3,0,0.4-0.2,0.4-0.6V51.9h8V50.8z
				 M82.2,59.8v1.6H67.1v-1.6H82.2z M70.8,69.7h2.7l-1.3,1.8c-0.3,0.4-0.8,0.6-1.4,0.6h-3.7v-1.5h2.7c0.2,0,0.4-0.1,0.5-0.2
				L70.8,69.7z M81.8,55v1.6h-2.3v1.4c0,0.6-0.4,0.9-1.3,0.9h-8.5v-2.3h-2.4V55h2.4v-0.8h2V55h5.8v-0.8h2V55H81.8z M73.2,62.3h8v5.5
				c0,0.8-0.6,1.3-1.8,1.3H68.1v-6.7L73.2,62.3L73.2,62.3z M70.1,64.9h3.4v-1.2h-3.4V64.9z M73.2,67.5h0.2v-1.1h-3.4v1.1H73.2z
				 M71.7,56.6v0.9h5.5c0.2,0,0.4-0.1,0.4-0.3v-0.6H71.7z M75.4,63.8v1.2h3.8v-1.2H75.4z M75.4,66.4v1.1h3.3c0.4,0,0.5-0.1,0.5-0.3
				v-0.8H75.4z M75.4,69.7h2.9l0.4,0.8c0.1,0.2,0.3,0.2,0.6,0.2h3.4v1.5h-4.8c-0.5,0-0.9-0.2-1.2-0.6L75.4,69.7z"/>
			<path class="st0" d="M86.9,51.5h2.6l-0.7,1.8h4.3V51h2.3v2.2h7.4v2.3h-7.4v3.8h8.1v2.4H84.4v-2.4h8.7v-3.8h-5.3l-0.4,0.8
				c-0.2,0.5-0.5,0.7-0.9,0.7h-2v-2.3h0.7c0.2,0,0.4-0.2,0.6-0.6L86.9,51.5z M85.5,63.9h16.7v6.4c0,1-0.6,1.5-1.8,1.5H85.5V63.9z
				 M99.2,69.7c0.4,0,0.7-0.2,0.7-0.6v-3H87.9v3.5L99.2,69.7L99.2,69.7z"/>
			<path class="st0" d="M123.8,52.1V54h-8.2v1.2h7.2v3.3c0,0.9-0.4,1.3-1.1,1.3h-6.2V61h7v3h1.5v1.9h-1.5v1.5c0,1-0.7,1.5-2,1.5h-5
				v1.5c0,1.2-0.7,1.9-2.1,1.9h-5.7v-1.9h5.1c0.3,0,0.4-0.1,0.4-0.4v-1h-7.1v-1.9h7.1v-1.2h-8.1V64h8.1v-1.2H106v-1.9h7.2v-1.2h-7
				v-4.5h7V54h-7.9v-1.9h7.9v-1h2.3v1L123.8,52.1L123.8,52.1z M113.2,58.1v-1.2h-4.8v1.2H113.2z M120.3,58.1c0.2,0,0.3-0.1,0.3-0.2
				v-1h-5.1v1.2L120.3,58.1L120.3,58.1z M115.5,62.8V64h4.7v-1.2H115.5z M115.5,65.9v1.2h4.3c0.3,0,0.5-0.1,0.5-0.4v-0.8H115.5z"/>
			<path class="st0" d="M131.9,51.1h2.3v3.3h2.2v-3.3h2.3v3.3h1.5l1-2.5h2.2l-0.9,2.5h2.4v2H141l-0.6,2.2h3.9v2h-8v1.5h7.3v1.9h-7.3
				v1.6h8.5v2h-8.5v4.8H134v-4.8h-8.3v-2h8.3v-1.6h-7.1v-1.9h7.1v-1.5h-7.8v-2h3.8l-0.5-2.2h-3.8v-2h2.3l-0.6-2.5h2.3l0.6,2.5h1.6
				L131.9,51.1L131.9,51.1z M129.8,68.7h2.7l-1.3,2.6c-0.3,0.6-0.7,0.8-1.4,0.8H126v-1.8h2.8c0.2,0,0.4-0.1,0.5-0.4L129.8,68.7z
				 M132.4,58.7h5.7l0.6-2.2h-6.8L132.4,58.7z M138,68.7h2.7l0.6,1.2c0.1,0.3,0.4,0.4,0.7,0.4h2.7V72h-4c-0.5,0-1-0.3-1.3-0.8
				L138,68.7z"/>
			<path class="st0" d="M150,51.8h4.3v19c0,0.8-0.4,1.2-1.2,1.2h-2v-2.1h0.8c0.2,0,0.4-0.1,0.4-0.4v-4.1h-2.5v5c0,1-0.5,1.5-1.4,1.5
				h-1.8v-2.1h0.7c0.3,0,0.4-0.1,0.4-0.4V51.8H150z M149.8,57.8h2.5v-3.4h-2.5C149.8,54.3,149.8,57.8,149.8,57.8z M149.8,63.3h2.5
				v-3.4h-2.5C149.8,59.8,149.8,63.3,149.8,63.3z M160.2,51.7h4.2v5.6c0,0.3,0.1,0.5,0.4,0.5h0.7v2h-1.9c-1,0-1.4-0.5-1.4-1.6v-4.5
				h-3.8v4.7c0,1-0.5,1.5-1.4,1.5h-1.7v-2h0.6c0.3,0,0.4-0.1,0.4-0.4v-5.8L160.2,51.7L160.2,51.7z M155.3,61.1h9.9v2.3l-3.6,4.5
				l0.8,1c0.4,0.5,0.9,0.7,1.4,0.7h1.4v2.2h-2.6c-0.4,0-0.8-0.2-1.1-0.6l-1.3-1.6l-1.4,1.8c-0.2,0.3-0.5,0.4-0.9,0.4h-2.7v-2.2h1.7
				c0.2,0,0.3-0.1,0.5-0.2l1.2-1.6l-2.7-3.3h2.8l1.3,1.6l2.3-2.9h-7.1L155.3,61.1L155.3,61.1z"/>
			<path class="st0" d="M170.8,51.2h2.5l-1.7,4.7v16.5h-2.3V58.2h-2.2v-2.4h1.7c0.3,0,0.5-0.3,0.6-0.8L170.8,51.2z M175.7,52.1h2.2
				l-1.1,6.4c-0.3,1.5-1,2.2-2.1,2.2H173v-2.1h1c0.3,0,0.5-0.4,0.7-1.1L175.7,52.1z M173.8,62H185v8.1c0,1.3-0.7,1.9-2.1,1.9h-3.6
				v-2.2h2.8c0.4,0,0.6-0.1,0.6-0.4v-5.1H178l-0.7,5.6c-0.2,1.3-0.7,1.9-1.6,1.9h-2.5v-2.1h1.1c0.4,0,0.7-0.3,0.8-0.9l0.6-4.5h-1.9
				L173.8,62L173.8,62z M178.7,51.6h5.5l1.2,6.5c0.1,0.3,0.2,0.4,0.5,0.4h0.6v2.2h-0.8c-1.7,0-2.6-0.6-2.7-1.7l-0.9-5.1h-3.5V51.6z"
				/>
			<path class="st0" d="M207.1,53v2.2h-12.3l-0.9,1.9h12.5v13.2c0,1.2-0.7,1.8-2.1,1.8h-6.8V70h6c0.4,0,0.6-0.1,0.6-0.4V68h-11.3
				v4.4h-2.3V62H188v-2.5h1.7c0.3,0,0.6-0.2,0.7-0.7l1.7-3.6h-3.8V53h4.9l0.9-1.9h2.7l-0.9,1.9L207.1,53L207.1,53z M192.7,61.5H204
				v-2.2h-11.3l0,0L192.7,61.5L192.7,61.5z M192.7,65.9H204v-2.2h-11.3V65.9z"/>
			<path class="st0" d="M211.2,71v1.2H209V51.8h6.5v8.1c0,0.6-0.3,1-0.9,1.2c0.6,0.4,0.9,0.8,0.9,1.4v7.2c0,0.9-0.5,1.3-1.4,1.4
				C214,71,211.2,71,211.2,71z M211.2,53.9V60h1.6c0.4,0,0.5-0.1,0.5-0.4v-5.7L211.2,53.9L211.2,53.9z M211.2,62.2v6.7h1.8
				c0.2,0,0.3-0.2,0.3-0.5v-5.8c0-0.3-0.2-0.4-0.7-0.4L211.2,62.2L211.2,62.2z M226.7,51.7v9.6c0,0.8-0.4,1.2-1.3,1.2h-6.1v6.8
				c0,0.2,0.1,0.4,0.4,0.4h2.1v2.2h-3.6c-0.9,0-1.3-0.4-1.3-1.3V51.7H226.7z M219.3,55.8v0.3h5.1v-2.3h-5.1V55.8z M219.3,58.1v2.2
				h4.8c0.2,0,0.3-0.1,0.3-0.4v-1.9L219.3,58.1L219.3,58.1z M225.2,63.4h2.2l-1.1,3.4c-0.2,0.8-0.6,1.2-1.2,1.2h-0.7l0.4,1.7
				c0.1,0.3,0.3,0.4,0.5,0.4h2.4V72h-3.5c-0.7,0-1.2-0.5-1.5-1.4l-1.7-6.9h2.4l0.6,2.5h0.3c0.2,0,0.4-0.2,0.5-0.6L225.2,63.4z"/>
			<path class="st0" d="M232.9,51.9h2.3l-1.1,7.1c-0.3,1.7-1,2.5-2.1,2.5h-2.6V59h1.9c0.3,0,0.5-0.4,0.7-1.2L232.9,51.9z
				 M236.9,57.9h2.6L234,69.5h10.4c-0.2,0-0.2-0.1-0.2-0.4l-0.9-5h2.3l1.2,5.6c0,0.6-0.2,1.1-0.5,1.5c-0.4,0.3-0.7,0.5-1,0.5h-14.1
				v-1.7c0-0.5,0.1-1,0.4-1.6L236.9,57.9z M236.5,51.7h7.6c0.2,0,0.4,0.4,0.6,1.1L246,58c0.2,0.8,0.4,1.2,0.5,1.2h1.8v2.2h-3.7
				c-0.2,0-0.4-0.4-0.6-1.3l-1.5-5.7c-0.1-0.5-0.3-0.7-0.4-0.7h-5.6L236.5,51.7L236.5,51.7z"/>
			<path class="st0" d="M250,51.9h18.3V70c0,1.4-0.7,2-2.1,2h-2.7v-2.2h1.8c0.4,0,0.6-0.1,0.6-0.4V54.2H250L250,51.9L250,51.9z
				 M264.2,56.3v2.4h-13.9v-2.4H264.2z M250.7,61.1h12.4v7.4c0,1.2-0.6,1.8-1.7,1.8h-10.7L250.7,61.1L250.7,61.1z M260.2,67.9
				c0.4,0,0.6-0.2,0.6-0.6v-3.9h-7.7v4.5H260.2z"/>
		</g>
	</g>
</g>
</svg>
