<?xml version="1.0" encoding="utf-8"?>
<!-- Generator: Adobe Illustrator 23.0.3, SVG Export Plug-In . SVG Version: 6.00 Build 0)  -->
<svg version="1.1" id="圖層_1" xmlns="http://www.w3.org/2000/svg" xmlns:xlink="http://www.w3.org/1999/xlink" x="0px" y="0px"
	 viewBox="0 0 229.29 62.02" style="enable-background:new 0 0 229.29 62.02;" xml:space="preserve">
<style type="text/css">
	.st0{fill:#FFFFFF;}
</style>
<g>
	<g>
		<path class="st0" d="M46.03,18.48c0-5.81,1.42-10.34,4.28-13.57c2.85-3.24,6.82-4.87,11.92-4.87c5.22,0,9.25,1.59,12.07,4.76
			c2.82,3.18,4.23,7.63,4.23,13.36c0.01,4.18-0.61,7.58-1.84,10.23c-1.22,2.66-3.01,4.74-5.33,6.22c-2.33,1.49-5.25,2.23-8.72,2.24
			c-3.53,0-6.46-0.63-8.77-1.91c-2.33-1.28-4.21-3.3-5.65-6.07C46.76,26.1,46.03,22.64,46.03,18.48z M55.73,18.51
			c0,3.6,0.6,6.17,1.78,7.73c1.17,1.57,2.77,2.36,4.79,2.36c2.06,0,3.67-0.77,4.8-2.31c1.14-1.53,1.71-4.29,1.7-8.27
			c0-3.34-0.6-5.79-1.78-7.33c-1.19-1.55-2.8-2.33-4.83-2.33c-1.94,0-3.5,0.79-4.68,2.36C56.34,12.29,55.73,14.89,55.73,18.51z"/>
		<path class="st0" d="M100.24,21.64l8.55,2.91c-0.57,2.7-1.47,4.97-2.7,6.77c-1.23,1.82-2.75,3.2-4.56,4.12
			c-1.82,0.92-4.13,1.38-6.95,1.39c-3.4,0-6.18-0.55-8.34-1.68c-2.18-1.12-4.03-3.1-5.61-5.92c-1.57-2.84-2.36-6.45-2.36-10.86
			c-0.01-5.9,1.37-10.43,4.13-13.59c2.75-3.16,6.67-4.74,11.72-4.75c3.95-0.01,7.07,0.9,9.32,2.71c2.27,1.81,3.95,4.59,5.05,8.35
			l-8.61,2.14c-0.29-1.07-0.61-1.85-0.93-2.36c-0.54-0.83-1.21-1.48-1.99-1.92c-0.79-0.45-1.67-0.68-2.65-0.68
			c-2.17,0.01-3.85,1.01-5.03,3.01c-0.87,1.49-1.32,3.83-1.31,7.01c0,3.93,0.53,6.63,1.58,8.1c1.05,1.46,2.54,2.19,4.45,2.19
			c1.86,0,3.25-0.59,4.2-1.78C99.15,25.61,99.82,23.89,100.24,21.64z"/>
		<path class="st0" d="M129.97,21.61l8.55,2.92c-0.55,2.71-1.45,4.96-2.69,6.76c-1.23,1.83-2.74,3.2-4.56,4.12
			c-1.82,0.93-4.13,1.38-6.95,1.39c-3.4,0-6.19-0.55-8.35-1.68c-2.16-1.12-4.03-3.1-5.61-5.92c-1.58-2.84-2.36-6.45-2.37-10.87
			c-0.01-5.9,1.36-10.42,4.13-13.58C114.88,1.59,118.8,0,123.85,0c3.94,0,7.06,0.9,9.32,2.71c2.25,1.81,3.94,4.59,5.05,8.36
			l-8.63,2.14c-0.29-1.08-0.59-1.86-0.92-2.36c-0.55-0.82-1.22-1.47-2-1.92c-0.79-0.45-1.67-0.67-2.63-0.67
			c-2.18,0.01-3.87,1.01-5.04,3.01c-0.87,1.49-1.31,3.83-1.3,7.01c0,3.94,0.54,6.64,1.58,8.1c1.05,1.46,2.54,2.2,4.44,2.19
			c1.86,0,3.27-0.59,4.21-1.78C128.87,25.59,129.56,23.87,129.97,21.61z"/>
		<path class="st0" d="M159.24,0.55l9.71-0.01l0.02,21.23c0,2.1-0.28,4.09-0.85,5.96c-0.57,1.89-1.48,3.51-2.72,4.92
			c-1.23,1.4-2.52,2.38-3.87,2.94c-1.9,0.8-4.16,1.19-6.82,1.2c-1.52,0-3.18-0.13-4.99-0.37c-1.81-0.24-3.31-0.71-4.52-1.44
			c-1.22-0.72-2.33-1.74-3.34-3.07c-1.02-1.33-1.7-2.69-2.06-4.11c-0.61-2.26-0.91-4.26-0.91-6l-0.02-21.24l9.71,0l0.02,21.72
			c0,1.93,0.47,3.45,1.43,4.54c0.93,1.1,2.24,1.64,3.92,1.63c1.66,0,2.97-0.53,3.91-1.6c0.94-1.09,1.41-2.61,1.4-4.57L159.24,0.55z"
			/>
		<path class="st0" d="M170.96,0.54l16.16-0.01c3.53,0,6.17,0.96,7.93,2.85c1.77,1.89,2.64,4.6,2.64,8.1
			c0.01,3.6-0.95,6.41-2.86,8.43c-1.91,2.03-4.84,3.05-8.75,3.05l-5.31,0.01l0.02,13.21l-9.79,0L170.96,0.54z M180.75,15.73
			l2.37-0.01c1.88,0,3.2-0.36,3.94-1.1c0.77-0.74,1.14-1.69,1.13-2.84c0-1.12-0.33-2.06-0.98-2.85c-0.66-0.77-1.89-1.16-3.71-1.16
			l-2.75,0L180.75,15.73z"/>
		<path class="st0" d="M195.19,0.52l10.75-0.01l6.35,11.9l6.31-11.91l10.7,0l-12.18,20.73l0.01,14.92l-9.71,0l-0.01-14.92
			L195.19,0.52z"/>
	</g>
	<g>
		<path class="st0" d="M12.54,4.29c0-1.15,0.49-2.3,1.81-2.3c1.31,0,1.81,1.15,1.81,2.3c0,1.16-0.5,2.32-1.81,2.32
			C13.04,6.61,12.54,5.45,12.54,4.29z M10.51,4.3c0,2.26,1.39,4.06,3.84,4.06c2.46-0.01,3.84-1.81,3.84-4.06
			c0-2.26-1.39-4.06-3.84-4.06C11.89,0.24,10.51,2.04,10.51,4.3z"/>
		<path class="st0" d="M15.97,12.63c-0.11-0.78-0.73-1.19-1.57-1.19c-1.31,0-1.81,1.16-1.81,2.32c0,1.15,0.5,2.31,1.81,2.3
			c0.95,0,1.49-0.54,1.57-1.43H18c-0.11,2.01-1.58,3.18-3.55,3.18c-2.36,0-3.89-1.79-3.89-4.05c0-2.26,1.52-4.05,3.88-4.05
			c1.68-0.01,3.5,1.06,3.56,2.93H15.97z"/>
		<path class="st0" d="M25.94,12.62c-0.11-0.79-0.72-1.21-1.57-1.21c-1.31,0-1.81,1.16-1.81,2.32c0,1.16,0.5,2.32,1.81,2.32
			c0.95,0,1.5-0.55,1.57-1.44h2.03c-0.1,2-1.58,3.18-3.55,3.18c-2.36,0-3.88-1.79-3.88-4.05c-0.01-2.25,1.52-4.06,3.87-4.06
			c1.68,0,3.5,1.07,3.55,2.95L25.94,12.62z"/>
		<path class="st0" d="M37.66,14.53c0,2.26-1.03,3.38-3.38,3.39c-2.36,0-3.4-1.12-3.4-3.38l0-4.56h2.04l0,4.68
			c0,1.01,0.37,1.51,1.36,1.51c0.99,0,1.36-0.51,1.36-1.51V9.97l2.03-0.01V14.53z"/>
		<path class="st0" d="M33.57,21.05h1.36c0.62,0,1.09,0.29,1.09,1.02c0,0.71-0.46,0.97-1.09,0.98h-1.36L33.57,21.05z M31.55,27.21
			h2.02v-2.59h1.67c1.71-0.01,2.81-0.76,2.81-2.69c0-1.84-1.37-2.52-2.82-2.51h-3.69L31.55,27.21z"/>
		<path class="st0" d="M35.39,33.89v2.9l-2.04,0.01v-2.9l-2.84-4.88h2.3l1.55,3.16l1.55-3.17l2.3-0.01L35.39,33.89z"/>
		<path class="st0" d="M8.61,4.33C8.62,6.71,6.68,8.66,4.3,8.66c-2.38,0-4.32-1.93-4.32-4.33c-0.01-2.37,1.93-4.31,4.31-4.31
			C6.68,0.02,8.61,1.96,8.61,4.33z"/>
		<path class="st0" d="M28.54,4.32c0,2.39-1.93,4.32-4.31,4.32c-2.38,0.01-4.32-1.92-4.32-4.32c0-2.37,1.93-4.31,4.31-4.31
			C26.61,0,28.54,1.93,28.54,4.32z"/>
		<path class="st0" d="M38.51,4.31c0,2.39-1.92,4.33-4.31,4.33c-2.39,0-4.33-1.93-4.33-4.32C29.88,1.93,31.81,0,34.2,0
			C36.58,0,38.51,1.93,38.51,4.31z"/>
		<path class="st0" d="M8.62,13.79c0,2.38-1.93,4.31-4.32,4.32c-2.38,0-4.32-1.93-4.32-4.31c0-2.38,1.93-4.31,4.31-4.31
			C6.68,9.48,8.62,11.41,8.62,13.79z"/>
		<path class="st0" d="M8.64,23.24c0,2.38-1.94,4.32-4.32,4.32C1.93,27.57,0,25.63,0,23.25c0-2.38,1.93-4.32,4.31-4.32
			C6.69,18.93,8.63,20.85,8.64,23.24z"/>
		<path class="st0" d="M18.59,23.23c0,2.38-1.92,4.32-4.3,4.32c-2.39,0-4.33-1.93-4.33-4.32c0-2.39,1.93-4.32,4.32-4.32
			C16.66,18.92,18.59,20.84,18.59,23.23z"/>
		<path class="st0" d="M28.56,23.22c0,2.39-1.92,4.33-4.31,4.33c-2.38,0-4.31-1.93-4.32-4.32c0-2.39,1.93-4.32,4.31-4.32
			C26.62,18.91,28.55,20.84,28.56,23.22z"/>
		<path class="st0" d="M8.64,32.7c0,2.38-1.93,4.32-4.32,4.32c-2.39,0-4.32-1.92-4.32-4.3c0-2.39,1.93-4.32,4.32-4.32
			C6.7,28.38,8.64,30.32,8.64,32.7z"/>
		<path class="st0" d="M18.6,32.69c0,2.38-1.92,4.32-4.31,4.32c-2.38,0-4.32-1.93-4.32-4.31c-0.01-2.38,1.93-4.33,4.32-4.33
			C16.67,28.37,18.6,30.31,18.6,32.69z"/>
		<path class="st0" d="M28.56,32.69c0,2.38-1.93,4.31-4.32,4.31c-2.38,0-4.31-1.93-4.31-4.31c0-2.39,1.93-4.32,4.31-4.32
			C26.63,28.37,28.56,30.3,28.56,32.69z"/>
	</g>
</g>
<g>
	<g>
		<path class="st0" d="M1.16,47.02h1.86l0.85,2.38h1.99l0.92-2.38h1.84l-0.9,2.38h1.67v1.66H5.7v1.87h3.35v1.81H5.7v7.12H4.02v-7.12
			H0.76v-1.81h3.26v-1.87H0.45V49.4h1.56L1.16,47.02z M1.68,55.79h1.69l-0.66,3.96c-0.17,0.93-0.58,1.4-1.24,1.4H0.52v-1.89H0.9
			c0.12,0,0.22-0.2,0.32-0.59L1.68,55.79z M3.81,43.49h2.04v1.24H9.2v1.66H0.6v-1.66h3.21V43.49z M6.41,56.02h1.7l0.37,2.5
			C8.53,58.84,8.59,59,8.68,59h0.59v1.91H8.05c-0.48,0-0.8-0.4-0.94-1.2L6.41,56.02z M16.56,43.49v1.14c0,1.12-0.52,1.67-1.56,1.67
			h-3.19v2.37h5.13v1.73h-0.99v11.45h-1.86V50.41h-2.27v9.46c0,1.1-0.5,1.66-1.49,1.66H9.47v-1.89h0.27c0.17,0,0.25-0.07,0.25-0.22
			V44.49h4.31c0.33,0,0.5-0.33,0.5-1H16.56z"/>
		<path class="st0" d="M23.53,45.44v1.91h-1.12v1.56h0.99v1.99h-0.99v9.15c0,0.51-0.15,0.93-0.46,1.26
			c-0.24,0.32-0.58,0.47-1.03,0.47h-2v-1.91h1.37c0.22,0,0.34-0.29,0.34-0.87v-5.38l-0.73,3.11c-0.17,0.68-0.37,1.03-0.6,1.03h-1.08
			v-1.89h0.14c0.27,0,0.46-0.29,0.57-0.87l1.21-5.11c0.18-0.62,0.34-0.94,0.5-0.97v-1.58h-1.97v-1.91h1.97v-1.66h1.79v1.66H23.53z
			 M26.72,43.62h1.79v0.57h5.96v1.4h-5.96v0.71h5.8v2.27h-1.77V47.8H25.6v12.06c0,1.27-0.57,1.91-1.7,1.91h-1.08v-1.66h0.71
			c0.25,0,0.37-0.17,0.37-0.49V46.31h2.82V43.62z M34.32,53.09v1.42h-4.36l-0.46,0.81h2.22v0.71h0.71c0.22,0,0.39-0.32,0.5-0.95
			h1.56c-0.06,0.88-0.21,1.5-0.44,1.85c-0.22,0.34-0.55,0.51-0.98,0.51h-1.35v3.13c0,0.85-0.48,1.28-1.44,1.28h-1.54v-0.95
			c-0.32,0.3-0.67,0.45-1.06,0.45h-1.65v-1.32h1.01c0.46,0,0.85-0.35,1.15-1.04c-0.14,0.05-0.29,0.08-0.44,0.08h-1.56v-1.24h0.99
			c0.33,0,0.61-0.22,0.83-0.65h1.44c-0.28,0.83-0.55,1.34-0.8,1.54c-0.01,0.01-0.03,0.03-0.05,0.04h1.12
			c-0.21,0.74-0.43,1.29-0.64,1.66h0.64c0.25,0,0.37-0.1,0.37-0.3v-3.39h-1.4c-0.17,0.16-0.37,0.24-0.6,0.24H26.1v-1.44h1.19
			c0.14,0,0.25-0.08,0.34-0.24L28,54.51h-1.99v-1.42H34.32z M34.17,49.08v1.4h-4.95v0.41c0,0.2,0.09,0.3,0.27,0.3h4.61v1.36h-5.59
			c-0.67,0-1.01-0.26-1.01-0.79v-1.28h-1.4v-1.4h1.4V48.3h1.72v0.79H34.17z M31.97,57.98h1.56l0.44,1.81
			c0.06,0.28,0.17,0.41,0.34,0.41h0.3v1.58h-1.01c-0.46,0-0.79-0.4-0.99-1.2L31.97,57.98z"/>
		<path class="st0" d="M36.68,58.13h1.42l-0.5,2.62c-0.13,0.63-0.44,0.95-0.92,0.95H35.9v-1.42h0.34c0.08,0,0.15-0.12,0.19-0.37
			L36.68,58.13z M36.47,44.2h8.23v6.13c0,0.79-0.36,1.18-1.08,1.18h-2.2v1.2h3.35v1.66h-3.35v1.32h3.69v1.66H36.1v-1.66h3.69v-1.32
			h-3.32v-1.66h3.32v-1.2h-3.32V44.2z M39.79,48.83v-3.06h-1.83v0.69h0.99L39.79,48.83z M39.79,49.95v-0.71h-0.98l-0.85-2.37v3.08
			H39.79z M38.58,58.13h1.28l0.41,1.79c0.05,0.24,0.12,0.35,0.23,0.35h0.28v1.42H40c-0.41,0-0.69-0.29-0.83-0.87L38.58,58.13z
			 M40.78,58.13h1.28l0.41,1.79c0.05,0.24,0.13,0.35,0.25,0.35h0.27v1.42H42.2c-0.43,0-0.7-0.29-0.83-0.87L40.78,58.13z
			 M41.42,45.77v3.08l0.92-2.38h0.94v-0.69H41.42z M42.84,49.95c0.3,0,0.44-0.17,0.44-0.49v-2.42l-0.85,2.21h-1.01v0.71H42.84z
			 M43.05,58.13h1.28l0.37,1.79c0.04,0.24,0.11,0.35,0.21,0.35h0.27v1.42H44.4c-0.4,0-0.67-0.29-0.8-0.87L43.05,58.13z M47.04,43.55
			h1.83v2.6h3.5v1.73h-3.5v4.1h3.19v8.14c0,0.93-0.42,1.4-1.26,1.4h-5.11v-9.54h1.35V43.55z M49.86,59.87c0.3,0,0.44-0.18,0.44-0.53
			v-5.7h-2.86v6.23H49.86z"/>
		<path class="st0" d="M61.38,43.41h2.27v0.95h6.48v1.5H56.34v13.86c0,1.33-0.59,1.99-1.77,1.99h-0.85v-1.66h0.51
			c0.22,0,0.34-0.16,0.34-0.49v-15.2h6.81V43.41z M69.75,51.06v1.34H56.83v-1.34H69.75z M60.03,59.55h2.34l-1.12,1.56
			c-0.25,0.33-0.66,0.49-1.22,0.49h-3.19v-1.32h2.27c0.21,0,0.37-0.06,0.46-0.18L60.03,59.55z M69.41,46.94v1.36h-2v1.16
			c0,0.54-0.37,0.81-1.12,0.81h-7.26V48.3h-2.06v-1.36h2.06v-0.71h1.7v0.71h4.98v-0.71h1.69v0.71H69.41z M62.08,53.17h6.81v4.67
			c0,0.72-0.52,1.08-1.56,1.08h-9.65v-5.76H62.08z M59.41,55.45h2.89v-1h-2.89V55.45z M62.08,57.68h0.21v-0.95h-2.89v0.95H62.08z
			 M60.74,48.3v0.79h4.68c0.2,0,0.3-0.08,0.3-0.26V48.3H60.74z M63.95,54.45v1h3.26v-1H63.95z M63.95,56.73v0.95h2.82
			c0.3,0,0.44-0.08,0.44-0.24v-0.71H63.95z M63.95,59.55h2.48l0.37,0.67c0.08,0.13,0.24,0.2,0.48,0.2h2.91v1.28h-4.13
			c-0.4,0-0.75-0.18-1.05-0.53L63.95,59.55z"/>
		<path class="st0" d="M73.77,43.94h2.2l-0.64,1.5h3.69v-1.89h2v1.89h6.3v1.99h-6.3v3.21h6.88v2.07H71.57v-2.07h7.45v-3.21h-4.54
			l-0.3,0.71c-0.17,0.41-0.41,0.61-0.75,0.61h-1.72V46.8h0.57c0.21,0,0.38-0.16,0.51-0.49L73.77,43.94z M72.59,54.58h14.25v5.46
			c0,0.88-0.52,1.32-1.56,1.32H72.59V54.58z M84.22,59.49c0.38,0,0.57-0.17,0.57-0.49v-2.52H74.63v3.02H84.22z"/>
		<path class="st0" d="M105.22,44.49v1.66h-7.03v1.03h6.17v2.78c0,0.74-0.3,1.1-0.9,1.1h-5.27v1h5.98v2.6h1.28v1.66h-1.28v1.28
			c0,0.88-0.57,1.32-1.7,1.32h-4.28v1.28c0,1.05-0.61,1.58-1.83,1.58h-4.84v-1.66h4.35c0.22,0,0.34-0.11,0.34-0.33v-0.87h-6.1v-1.58
			h6.1v-1.03h-6.88v-1.66h6.88v-1.03h-6.17v-1.58h6.17v-1h-5.94v-3.88h5.94v-1.03h-6.74v-1.66h6.74v-0.87h1.99v0.87H105.22z
			 M96.21,49.62v-1.02h-4.1v1.02H96.21z M102.31,49.62c0.15,0,0.23-0.05,0.23-0.16v-0.87h-4.35v1.02H102.31z M98.19,53.64v1.03h4.04
			v-1.03H98.19z M98.19,56.32v1.03h3.64c0.27,0,0.41-0.11,0.41-0.32v-0.71H98.19z"/>
		<path class="st0" d="M112.15,43.62h1.93v2.84h1.9v-2.84h1.93v2.84h1.3l0.83-2.11h1.9l-0.8,2.11h2.09v1.75h-3.28l-0.48,1.89h3.32
			v1.73h-6.81v1.32h6.24v1.66h-6.24v1.34h7.26v1.73h-7.26v4.12h-1.97V57.9h-7.11v-1.73h7.11v-1.34h-6.1v-1.66h6.1v-1.32h-6.67v-1.73
			h3.26l-0.46-1.89h-3.25v-1.75h2l-0.51-2.11h1.93l0.5,2.11h1.33V43.62z M110.39,58.63h2.27l-1.14,2.19
			c-0.24,0.47-0.64,0.71-1.21,0.71h-3.21v-1.56h2.36c0.2,0,0.34-0.11,0.43-0.34L110.39,58.63z M112.61,50.11h4.88l0.48-1.89h-5.82
			L112.61,50.11z M117.35,58.63h2.27l0.51,1c0.11,0.22,0.31,0.34,0.6,0.34h2.27v1.56h-3.39c-0.45,0-0.82-0.24-1.12-0.71
			L117.35,58.63z"/>
		<path class="st0" d="M127.63,44.2h3.69v16.22c0,0.68-0.35,1.02-1.05,1.02h-1.72v-1.81h0.71c0.2,0,0.3-0.1,0.3-0.3v-3.47h-2.13
			v4.26c0,0.88-0.41,1.32-1.22,1.32h-1.56v-1.81h0.64c0.25,0,0.37-0.12,0.37-0.37V44.2H127.63z M127.44,49.32h2.13v-2.94h-2.13
			V49.32z M127.44,54.03h2.13v-2.92h-2.13V54.03z M136.31,44.12h3.6v4.79c0,0.28,0.12,0.41,0.37,0.41h0.64v1.73h-1.63
			c-0.82,0-1.22-0.45-1.22-1.36v-3.84h-3.25v4.02c0,0.88-0.41,1.32-1.22,1.32h-1.49v-1.73h0.51c0.22,0,0.34-0.12,0.34-0.38v-4.97
			H136.31z M132.17,52.22h8.45v1.99l-3.07,3.86l0.69,0.85c0.35,0.42,0.75,0.63,1.19,0.63h1.19v1.89h-2.2
			c-0.34,0-0.65-0.16-0.92-0.47l-1.12-1.4l-1.21,1.52c-0.18,0.24-0.42,0.35-0.73,0.35h-2.27v-1.89h1.49c0.14,0,0.27-0.06,0.39-0.18
			l1.06-1.36l-2.31-2.86h2.41l1.1,1.34l1.95-2.46h-6.1V52.22z"/>
		<path class="st0" d="M145.41,43.7h2.13l-1.42,4.02v14.13h-1.97V49.7h-1.86v-2.03h1.49c0.24,0,0.42-0.22,0.55-0.67L145.41,43.7z
			 M149.55,44.49h1.9l-0.92,5.46c-0.24,1.26-0.82,1.89-1.76,1.89h-1.49v-1.81h0.85c0.24,0,0.43-0.32,0.58-0.95L149.55,44.49z
			 M147.99,52.93h9.56v6.94c0,1.1-0.59,1.66-1.77,1.66h-3.1v-1.89h2.39c0.34,0,0.52-0.12,0.52-0.37v-4.34h-4.04l-0.62,4.81
			c-0.15,1.09-0.61,1.64-1.37,1.64h-2.13v-1.81h0.98c0.34,0,0.56-0.26,0.66-0.79l0.55-3.84h-1.62V52.93z M152.16,44.04h4.68
			l1.03,5.58c0.05,0.22,0.18,0.34,0.41,0.34h0.55v1.89h-0.67c-1.42,0-2.18-0.47-2.27-1.42l-0.75-4.36h-2.98V44.04z"/>
		<path class="st0" d="M176.37,45.28v1.89h-10.5l-0.8,1.58h10.66v11.29c0,1.04-0.6,1.56-1.79,1.56h-5.8v-1.81h5.11
			c0.32,0,0.48-0.12,0.48-0.38v-1.36h-9.65v3.8h-1.97v-8.93h-2v-2.11h1.49c0.26,0,0.47-0.2,0.64-0.61l1.46-3.04h-3.28v-1.89h4.19
			l0.76-1.58h2.27l-0.8,1.58H176.37z M164.08,52.55h9.65v-1.91h-9.63l-0.02,0.02V52.55z M164.08,56.24h9.65v-1.87h-9.65V56.24z"/>
		<path class="st0" d="M179.88,60.66v1.04h-1.9V44.2h5.54v6.92c0,0.47-0.24,0.82-0.73,1.03c0.49,0.3,0.73,0.7,0.73,1.2v6.15
			c0,0.74-0.41,1.12-1.22,1.16H179.88z M179.88,46.01v5.26h1.35c0.3,0,0.44-0.12,0.44-0.38v-4.89H179.88z M179.88,53.09v5.76h1.56
			c0.15,0,0.23-0.15,0.23-0.45v-4.97c0-0.22-0.21-0.33-0.64-0.33H179.88z M193.16,44.12v8.18c0,0.7-0.38,1.04-1.15,1.04h-5.18v5.83
			c0,0.21,0.12,0.32,0.37,0.32h1.83v1.87h-3.05c-0.75,0-1.12-0.36-1.12-1.08V44.12H193.16z M186.83,47.67v0.22h4.33v-1.95h-4.33
			V47.67z M186.83,49.62v1.89h4.06c0.18,0,0.27-0.1,0.27-0.32v-1.58H186.83z M191.87,54.13h1.85l-0.96,2.94
			c-0.19,0.66-0.53,0.99-1.01,0.99h-0.64l0.34,1.44c0.09,0.25,0.24,0.37,0.43,0.37h2.08v1.66h-2.98c-0.6,0-1.04-0.39-1.29-1.16
			l-1.49-5.91h2.08l0.51,2.11h0.27c0.18,0,0.31-0.18,0.39-0.55L191.87,54.13z"/>
		<path class="st0" d="M198.41,44.28h1.99l-0.94,6.07c-0.25,1.42-0.86,2.13-1.83,2.13h-2.2v-2.07h1.58c0.24,0,0.43-0.34,0.58-1.03
			L198.41,44.28z M201.84,49.46h2.2l-4.68,9.88h8.85c-0.14,0-0.21-0.11-0.21-0.33l-0.78-4.26h2l1.05,4.81c0,0.5-0.13,0.94-0.39,1.32
			c-0.3,0.28-0.57,0.41-0.82,0.41h-12.05v-1.42c0-0.39,0.12-0.85,0.35-1.38L201.84,49.46z M201.46,44.12h6.48
			c0.17,0,0.33,0.32,0.5,0.95l1.14,4.43c0.17,0.71,0.31,1.06,0.43,1.06h1.56v1.91h-3.12c-0.19,0-0.37-0.36-0.53-1.08l-1.31-4.83
			c-0.11-0.42-0.22-0.63-0.35-0.63h-4.77V44.12z"/>
		<path class="st0" d="M213.01,44.28h15.61v15.51c0,1.16-0.61,1.73-1.83,1.73h-2.27v-1.89h1.56c0.32,0,0.48-0.12,0.48-0.37V46.31
			h-13.55V44.28z M225.14,48.12v2.07h-11.83v-2.07H225.14z M213.65,52.14h10.57v6.33c0,1-0.47,1.5-1.42,1.5h-9.15V52.14z
			 M221.75,57.98c0.33,0,0.5-0.18,0.5-0.53v-3.31h-6.6v3.84H221.75z"/>
	</g>
</g>
</svg>
